<svg width="17" height="17" viewBox="0 0 17 17" fill="none" xmlns="http://www.w3.org/2000/svg">
<path d="M16.8507 15.5571C17.0498 15.734 17.0498 15.922 16.8507 16.121L16.121 16.8507C15.922 17.0498 15.734 17.0498 15.5571 16.8507L11.5434 12.8371C11.455 12.7486 11.4107 12.6602 11.4107 12.5717V12.1073C10.106 13.2351 8.60228 13.799 6.89951 13.799C4.99772 13.799 3.37236 13.1246 2.02341 11.7756C0.674472 10.4267 0 8.8013 0 6.89951C0 4.99772 0.674472 3.37236 2.02341 2.02341C3.37236 0.674472 4.99772 0 6.89951 0C8.8013 0 10.4267 0.674472 11.7756 2.02341C13.1246 3.37236 13.799 4.99772 13.799 6.89951C13.799 8.60228 13.2351 10.106 12.1073 11.4107H12.5717C12.6823 11.4107 12.7707 11.455 12.8371 11.5434L16.8507 15.5571ZM3.15122 10.6478C3.15122 10.6478 3.41106 10.9076 3.93073 11.4273C4.45041 11.947 5.44 12.2068 6.89951 12.2068C8.35902 12.2068 9.60845 11.6872 10.6478 10.6478C11.6872 9.60846 12.2068 8.35902 12.2068 6.89951C12.2068 5.44 11.6872 4.19057 10.6478 3.15122C9.60845 2.11187 8.35902 1.5922 6.89951 1.5922C5.44 1.5922 4.19057 2.11187 3.15122 3.15122C2.11187 4.19057 1.5922 5.44 1.5922 6.89951C1.5922 8.35902 2.11187 9.60846 3.15122 10.6478Z" fill="#5E626F"/>
</svg>
