<svg width="20" height="20" viewBox="0 0 20 20" fill="none" xmlns="http://www.w3.org/2000/svg">
<path d="M2.7334 9.39998H17.2667V10.6H2.7334V9.39998ZM3.3334 10.6C4.26673 10.6 5.14451 10.3555 5.96673 9.86665C6.78895 9.37776 7.44451 8.7222 7.9334 7.89998C8.42229 7.07776 8.66673 6.19998 8.66673 5.26665V4.66665H7.40007V5.26665C7.40007 5.97776 7.22229 6.64442 6.86673 7.26665C6.51118 7.88887 6.01118 8.39998 5.36673 8.79998C4.72229 9.19998 4.04451 9.39998 3.3334 9.39998H2.7334V10.6H3.3334ZM3.3334 9.39998C4.26673 9.39998 5.14451 9.64442 5.96673 10.1333C6.78895 10.6222 7.44451 11.2778 7.9334 12.1C8.42229 12.9222 8.66673 13.8 8.66673 14.7333V15.3333H7.40007V14.7333C7.40007 14.0222 7.22229 13.3555 6.86673 12.7333C6.51118 12.1111 6.01118 11.6 5.36673 11.2C4.72229 10.8 4.04451 10.6 3.3334 10.6H2.7334V9.39998H3.3334Z" fill="#13172B"/>
</svg>
