<svg width="16" height="16" viewBox="0 0 16 16" fill="none" xmlns="http://www.w3.org/2000/svg">
<path d="M15.7333 8C15.591 8.03556 15.431 8.05334 15.2533 8.05334L13.8666 8.26667C12.1955 8.40889 10.3999 8.48 8.47993 8.48C8.47993 9.86667 8.44438 11.1822 8.37327 12.4267C8.30216 13.3156 8.21327 14.1333 8.1066 14.88L7.99994 15.7333L7.73327 13.8667C7.59105 12.1956 7.51994 10.4 7.51994 8.48C6.13327 8.48 4.81771 8.44445 3.57327 8.37334C2.68438 8.30223 1.8666 8.21334 1.11993 8.10667L0.266602 8L2.13327 7.73334C3.80438 7.59111 5.59994 7.52 7.51994 7.52C7.51994 6.13334 7.55549 4.81778 7.6266 3.57334C7.69771 2.68445 7.7866 1.86667 7.89327 1.12L7.99994 0.26667L8.1066 1.12C8.21327 1.86667 8.30216 2.68445 8.37327 3.57334C8.44438 4.81778 8.47993 6.13334 8.47993 7.52C9.8666 7.52 11.1822 7.55556 12.4266 7.62667C13.3155 7.69778 14.1333 7.78667 14.8799 7.89334L15.7333 8ZM8.47993 6.98667C8.94216 6.41778 9.42216 5.90223 9.91994 5.44C10.311 5.15556 10.6844 4.90667 11.0399 4.69334L11.5199 4.48C10.8444 5.65334 10.0088 6.66667 9.01327 7.52L8.47993 6.98667ZM6.9866 7.52C6.41771 7.05778 5.90216 6.57778 5.43994 6.08C5.15549 5.68889 4.9066 5.31556 4.69327 4.96L4.47994 4.48C5.65327 5.15556 6.6666 5.99111 7.51994 6.98667L6.9866 7.52ZM7.51994 9.01334C7.05771 9.58223 6.57771 10.0978 6.07994 10.56C5.68882 10.8444 5.31549 11.0933 4.95994 11.3067L4.47994 11.52C5.15549 10.3467 5.99105 9.33334 6.9866 8.48L7.51994 9.01334ZM9.01327 8.48C9.58216 8.94223 10.0977 9.42223 10.5599 9.92C10.8444 10.3111 11.0933 10.6844 11.3066 11.04L11.5199 11.52C10.3466 10.8444 9.33327 10.0089 8.47993 9.01334L9.01327 8.48ZM6.77327 8C6.77327 8.35556 6.88882 8.64889 7.11994 8.88C7.35105 9.11111 7.64438 9.22667 7.99994 9.22667C8.35549 9.22667 8.64882 9.11111 8.87994 8.88C9.11105 8.64889 9.2266 8.35556 9.2266 8C9.2266 7.64445 9.11105 7.35112 8.87994 7.12C8.64882 6.88889 8.35549 6.77334 7.99994 6.77334C7.64438 6.77334 7.35105 6.88889 7.11994 7.12C6.88882 7.35112 6.77327 7.64445 6.77327 8Z" fill="#13172B"/>
</svg>
