<svg width="25" height="25" viewBox="0 0 25 25" fill="none" xmlns="http://www.w3.org/2000/svg">
<path d="M24.2188 9.91211C24.642 9.94466 24.8943 10.1807 24.9756 10.6201C25.057 11.0596 24.9024 11.377 24.5118 11.5723L19.7266 14.1602L23.3887 18.2129C23.6817 18.5384 23.7142 18.8965 23.4864 19.2871C23.2585 19.6777 22.933 19.8242 22.5098 19.7266L17.2364 18.5547L17.4317 24.0723C17.4317 24.3327 17.3422 24.5524 17.1631 24.7314C16.9841 24.9105 16.7644 25 16.504 25C16.2435 25 16.0157 24.8861 15.8204 24.6582L12.5001 20.3125L9.17974 24.6582C8.98443 24.8861 8.75656 25 8.49614 25C8.23573 25 8.016 24.9105 7.83696 24.7314C7.65793 24.5524 7.56841 24.3327 7.56841 24.0723L7.76372 18.5547L2.49028 19.7266C2.42518 19.7266 2.36008 19.7266 2.29497 19.7266C1.90435 19.7266 1.62765 19.5557 1.46489 19.2139C1.30213 18.8721 1.35096 18.5384 1.61138 18.2129L5.27349 14.1602L0.488332 11.5723C0.0977067 11.377 -0.0569156 11.0596 0.0244646 10.6201C0.105845 10.1807 0.358123 9.94466 0.7813 9.91211L6.15239 9.13086L4.10161 4.05273C3.93885 3.62956 4.02023 3.27962 4.34575 3.00293C4.67127 2.72624 5.02935 2.70182 5.41997 2.92969L10.0098 5.85938L11.67 0.634766C11.8002 0.211588 12.0769 0 12.5001 0C12.9232 0 13.1999 0.211588 13.3301 0.634766L14.9903 5.85938L19.5801 2.92969C19.9708 2.70182 20.3288 2.72624 20.6543 3.00293C20.9799 3.27962 21.0612 3.62956 20.8985 4.05273L18.8477 9.13086L24.2188 9.91211ZM16.5528 15.2344L14.795 13.2812L17.0899 12.0605L14.502 11.6699L15.4786 9.22852L13.2813 10.6445L12.5001 8.1543L11.7188 10.6445L9.52153 9.22852L10.4981 11.6699L7.91021 12.0605L10.2051 13.2812L8.44732 15.2344L10.9864 14.6484L10.8887 17.2852L12.5001 15.2344L14.1114 17.2852L14.0137 14.6484L16.5528 15.2344Z" fill="#CC0D39"/>
</svg>
