<svg width="18" height="21" viewBox="0 0 18 21" fill="none" xmlns="http://www.w3.org/2000/svg">
<path d="M12.6562 2.49219C14.0104 3.74219 15.1562 5.27865 16.0938 7.10156C17.0312 8.92448 17.5 10.3958 17.5 11.5156C17.5 13.9896 16.6471 16.1055 14.9414 17.8633C13.2357 19.6211 11.1719 20.5 8.75 20.5C6.32812 20.5 4.26432 19.6211 2.55859 17.8633C0.852865 16.1055 0 13.9896 0 11.5156C0 10.1094 0.61849 8.36458 1.85547 6.28125C3.09245 4.19792 4.66146 2.27083 6.5625 0.5C8.04688 1.88021 9.33594 3.32552 10.4297 4.83594C11.1328 4.0026 11.875 3.22135 12.6562 2.49219ZM3.88672 16.5352C3.88672 16.5352 4.22201 16.8835 4.89258 17.5801C5.56315 18.2767 6.84896 18.625 8.75 18.625C10.651 18.625 12.2721 17.9284 13.6133 16.5352C14.9544 15.1419 15.625 13.4688 15.625 11.5156C15.625 10.8646 15.3385 9.92057 14.7656 8.68359C14.1927 7.44661 13.4766 6.29427 12.6172 5.22656C12.3568 5.48698 12.1224 5.76042 11.9141 6.04688L10.3516 7.92188L8.90625 5.92969C8.22917 4.99219 7.44792 4.06771 6.5625 3.15625C5.13021 4.66667 3.99089 6.20312 3.14453 7.76562C2.29818 9.32812 1.875 10.5781 1.875 11.5156C1.875 13.4688 2.54557 15.1419 3.88672 16.5352ZM12.2266 9.99219C12.3828 10.2266 12.513 10.4609 12.6172 10.6953C13.112 11.5547 13.2552 12.4987 13.0469 13.5273C12.8385 14.556 12.3177 15.3568 11.4844 15.9297C10.7031 16.4766 9.81771 16.75 8.82812 16.75C7.57812 16.75 6.52344 16.3594 5.66406 15.5781C4.80469 14.7969 4.375 13.7552 4.375 12.4531C4.375 11.8542 4.5638 11.2357 4.94141 10.5977C5.31901 9.95964 5.96354 9.09375 6.875 8L10.2344 12.2969L12.2266 9.99219Z" fill="#CC0D39"/>
</svg>
