<svg width="16" height="16" viewBox="0 0 16 16" fill="none" xmlns="http://www.w3.org/2000/svg">
<path d="M2.5 11.5C2.64583 11.5 2.76562 11.5469 2.85938 11.6406C2.95312 11.7344 3 11.8542 3 12V14C3 14.1458 2.95312 14.2656 2.85938 14.3594C2.76562 14.4531 2.64583 14.5 2.5 14.5H0.5C0.354167 14.5 0.234375 14.4531 0.140625 14.3594C0.046875 14.2656 0 14.1458 0 14V12C0 11.8542 0.046875 11.7344 0.140625 11.6406C0.234375 11.5469 0.354167 11.5 0.5 11.5H2.5ZM2.5 1.5C2.64583 1.5 2.76562 1.54688 2.85938 1.64062C2.95312 1.73438 3 1.85417 3 2V4C3 4.14583 2.95312 4.26562 2.85938 4.35938C2.76562 4.45312 2.64583 4.5 2.5 4.5H0.5C0.354167 4.5 0.234375 4.45312 0.140625 4.35938C0.046875 4.26562 0 4.14583 0 4V2C0 1.85417 0.046875 1.73438 0.140625 1.64062C0.234375 1.54688 0.354167 1.5 0.5 1.5H2.5ZM2.5 6.5C2.64583 6.5 2.76562 6.54688 2.85938 6.64062C2.95312 6.73438 3 6.85417 3 7V9C3 9.14583 2.95312 9.26562 2.85938 9.35938C2.76562 9.45312 2.64583 9.5 2.5 9.5H0.5C0.354167 9.5 0.234375 9.45312 0.140625 9.35938C0.046875 9.26562 0 9.14583 0 9V7C0 6.85417 0.046875 6.73438 0.140625 6.64062C0.234375 6.54688 0.354167 6.5 0.5 6.5H2.5ZM15.5 12C15.6458 12 15.7656 12.0469 15.8594 12.1406C15.9531 12.2344 16 12.3542 16 12.5V13.5C16 13.6458 15.9531 13.7656 15.8594 13.8594C15.7656 13.9531 15.6458 14 15.5 14H5.5C5.35417 14 5.23438 13.9531 5.14062 13.8594C5.04688 13.7656 5 13.6458 5 13.5V12.5C5 12.3542 5.04688 12.2344 5.14062 12.1406C5.23438 12.0469 5.35417 12 5.5 12H15.5ZM15.5 2C15.6458 2 15.7656 2.04688 15.8594 2.14062C15.9531 2.23438 16 2.35417 16 2.5V3.5C16 3.64583 15.9531 3.76562 15.8594 3.85938C15.7656 3.95312 15.6458 4 15.5 4H5.5C5.35417 4 5.23438 3.95312 5.14062 3.85938C5.04688 3.76562 5 3.64583 5 3.5V2.5C5 2.35417 5.04688 2.23438 5.14062 2.14062C5.23438 2.04688 5.35417 2 5.5 2H15.5ZM15.5 7C15.6458 7 15.7656 7.04688 15.8594 7.14062C15.9531 7.23438 16 7.35417 16 7.5V8.5C16 8.64583 15.9531 8.76562 15.8594 8.85938C15.7656 8.95312 15.6458 9 15.5 9H5.5C5.35417 9 5.23438 8.95312 5.14062 8.85938C5.04688 8.76562 5 8.64583 5 8.5V7.5C5 7.35417 5.04688 7.23438 5.14062 7.14062C5.23438 7.04688 5.35417 7 5.5 7H15.5Z" fill="#13172B"/>
</svg>
