<svg width="16" height="14" viewBox="0 0 16 14" fill="none" xmlns="http://www.w3.org/2000/svg">
<path d="M15.668 6.58984C15.7227 6.71745 15.75 6.85417 15.75 7C15.75 7.14583 15.7227 7.28255 15.668 7.41016C14.9023 8.86849 13.8268 10.0397 12.4414 10.9238C11.056 11.8079 9.53385 12.25 7.875 12.25C6.78125 12.25 5.72852 12.0449 4.7168 11.6348C3.70508 11.2246 2.80729 10.6595 2.02344 9.93945C1.23958 9.2194 0.592448 8.3763 0.0820312 7.41016C0.0273438 7.28255 0 7.14583 0 7C0 6.85417 0.0273438 6.71745 0.0820312 6.58984C0.847656 5.13151 1.92318 3.96029 3.30859 3.07617C4.69401 2.19206 6.21615 1.75 7.875 1.75C9.53385 1.75 11.056 2.19206 12.4414 3.07617C13.8268 3.96029 14.9023 5.13151 15.668 6.58984ZM7.875 10.9375C8.96875 10.9375 9.89844 10.5547 10.6641 9.78906C11.4297 9.02344 11.8125 8.09375 11.8125 7C11.8125 5.90625 11.4297 4.97656 10.6641 4.21094C9.89844 3.44531 8.96875 3.0625 7.875 3.0625C6.78125 3.0625 5.85156 3.44531 5.08594 4.21094C4.32031 4.97656 3.9375 5.90625 3.9375 7C3.9375 8.09375 4.32031 9.02344 5.08594 9.78906C5.85156 10.5547 6.78125 10.9375 7.875 10.9375ZM7.875 4.375C8.60417 4.375 9.22396 4.63021 9.73438 5.14062C10.2448 5.65104 10.5 6.26628 10.5 6.98633C10.5 7.70638 10.2448 8.32617 9.73438 8.8457C9.22396 9.36523 8.60872 9.625 7.88867 9.625C7.16862 9.625 6.54883 9.36523 6.0293 8.8457C5.50977 8.32617 5.25 7.71094 5.25 7C5.25 6.76302 5.28646 6.53516 5.35938 6.31641C5.57812 6.48047 5.83333 6.5625 6.125 6.5625C6.48958 6.5625 6.79948 6.4349 7.05469 6.17969C7.3099 5.92448 7.4375 5.61458 7.4375 5.25C7.4375 4.95833 7.35547 4.70312 7.19141 4.48438C7.41016 4.41146 7.63802 4.375 7.875 4.375Z" fill="#13172B"/>
</svg>
