<svg width="41" height="40" viewBox="0 0 41 40" fill="none" xmlns="http://www.w3.org/2000/svg">
<path d="M7.74329 29.0667L8.14329 30.2667C8.49885 30.1778 8.85441 30.0889 9.20996 30L8.94329 28.8C8.49885 28.8 8.09885 28.8889 7.74329 29.0667ZM4.40996 32.2667L5.47663 32.8C5.92107 32 6.49885 31.3334 7.20996 30.8L6.54329 29.7334C5.56552 30.3556 4.85441 31.2 4.40996 32.2667ZM38.81 31.8667C38.81 30.8 38.41 29.8223 37.61 28.9334L36.6766 29.7334C37.1211 30.1778 37.3877 30.6667 37.4766 31.2H33.0766C32.8989 31.2 32.7655 31.2889 32.6766 31.4667L30.2766 34.9334H28.81V33.0667C28.81 31.9112 29.2322 30.9112 30.0766 30.0667C30.9211 29.2223 31.9211 28.8 33.0766 28.8H34.41C35.0322 28.8 35.61 28.9778 36.1433 29.3334L36.81 28.2667C36.2766 27.9112 35.6989 27.6889 35.0766 27.6V25.6C35.0766 25.4223 35.01 25.2667 34.8766 25.1334C34.7433 25 34.5877 24.9334 34.41 24.9334C33.6989 24.9334 33.0989 24.7112 32.61 24.2667C32.1211 23.8223 31.8766 23.2445 31.8766 22.5334V20H33.7433C33.9211 20 34.0766 19.9334 34.21 19.8C34.3433 19.6667 34.41 19.5112 34.41 19.3334V14.9334C34.41 14.8445 34.3433 14.7334 34.21 14.6C34.0766 14.4667 33.9211 14.4 33.7433 14.4H32.6766C32.41 14.4 32.1433 14.4445 31.8766 14.5334V13.7334C31.8766 13.5556 31.8322 13.4223 31.7433 13.3334L29.7433 10.8C30.01 10.3556 30.0989 9.86671 30.01 9.33338C29.9211 8.80005 29.6544 8.3556 29.21 8.00005C28.7655 7.64449 28.2766 7.46671 27.7433 7.46671C27.21 7.46671 26.7433 7.66671 26.3433 8.06671C25.9433 8.46671 25.7211 8.93338 25.6766 9.46671C25.6322 10 25.7433 10.4889 26.01 10.9334C26.2766 11.3778 26.6766 11.6667 27.21 11.8C27.7433 11.9334 28.2766 11.8667 28.81 11.6L30.6766 14V14.8L27.8766 13.8667C27.6989 13.7778 27.5211 13.7334 27.3433 13.7334H22.1433L19.21 10.2667C19.7433 9.91116 20.01 9.42227 20.01 8.80005V8.53338L20.9433 8.00005C21.1211 7.91116 21.2322 7.77782 21.2766 7.60005C21.3211 7.42227 21.2989 7.28894 21.21 7.20005L20.1433 5.60005C20.4989 5.51116 20.6766 5.33338 20.6766 5.06672C20.6766 4.00005 20.2989 3.08894 19.5433 2.33338C18.7877 1.57782 17.9211 1.20005 16.9433 1.20005C15.61 1.20005 14.5655 1.62227 13.81 2.46671C13.0544 3.31116 12.7211 4.26671 12.81 5.33338L12.9433 6.66671C13.0322 7.28894 13.2989 7.77782 13.7433 8.13338V20C13.7433 20.4445 13.8766 20.8445 14.1433 21.2H13.0766C12.8989 21.2 12.7211 21.2445 12.5433 21.3334V13.0667C12.5433 12.6223 12.3655 12.2 12.01 11.8C11.6544 11.4 11.21 11.2 10.6766 11.2H3.07663C2.63218 11.2 2.20996 11.4 1.80996 11.8C1.40996 12.2 1.20996 12.6223 1.20996 13.0667V16.2667H2.54329V14.9334H11.21V21.2H2.54329V17.4667H1.20996V22.6667C1.20996 22.9334 1.32107 23.1778 1.54329 23.4C1.76552 23.6223 2.00996 23.7778 2.27663 23.8667L8.14329 24.9334V26.4C7.60996 26.4889 7.07663 26.6667 6.54329 26.9334H3.07663C2.89885 26.9334 2.76552 26.9778 2.67663 27.0667C2.58774 27.1556 2.54329 27.2889 2.54329 27.4667V30.4C1.65441 31.8223 1.20996 33.3334 1.20996 34.9334C1.20996 35.1112 1.27663 35.2667 1.40996 35.4C1.54329 35.5334 1.69885 35.6 1.87663 35.6H4.80996C5.16552 36.5778 5.76552 37.3556 6.60996 37.9334C7.45441 38.5112 8.38774 38.8 9.40996 38.8C10.4322 38.8 11.3655 38.5112 12.21 37.9334C13.0544 37.3556 13.6544 36.5778 14.01 35.6H24.5433C25.4322 35.6 26.1877 35.2889 26.81 34.6667L27.4766 33.8667V35.6C27.4766 35.7778 27.5433 35.9334 27.6766 36.0667C27.81 36.2 27.9655 36.2667 28.1433 36.2667H29.4766C30.01 37.2445 30.81 37.9556 31.8766 38.4C32.9433 38.8445 34.01 38.9112 35.0766 38.6C36.1433 38.2889 37.0322 37.6889 37.7433 36.8C38.4544 35.9112 38.81 34.8889 38.81 33.7334C38.81 33.2889 38.7211 32.8445 38.5433 32.4C38.7211 32.2223 38.81 32.0445 38.81 31.8667ZM26.9433 9.73338C26.9433 9.46671 27.0322 9.24449 27.21 9.06671C27.3877 8.88894 27.61 8.80005 27.8766 8.80005C28.1433 8.80005 28.3655 8.88894 28.5433 9.06671C28.7211 9.24449 28.81 9.46671 28.81 9.73338C28.81 10 28.7211 10.2223 28.5433 10.4C28.3655 10.5778 28.1433 10.6667 27.8766 10.6667C27.61 10.6667 27.3877 10.5778 27.21 10.4C27.0322 10.2223 26.9433 10 26.9433 9.73338ZM18.01 31.8667C17.2989 31.8667 16.7211 31.6445 16.2766 31.2C15.8322 30.7556 15.61 30.2 15.61 29.5334C15.61 28.8667 15.81 28.3112 16.21 27.8667C16.61 27.4223 17.1211 27.1556 17.7433 27.0667C18.3655 26.9778 18.8989 26.6889 19.3433 26.2C19.7877 25.7112 20.01 25.1112 20.01 24.4C20.01 24.2223 19.9655 24.0445 19.8766 23.8667C20.0544 23.4223 20.0544 22.9778 19.8766 22.5334H21.61L18.81 29.6C18.81 29.7778 18.81 29.9556 18.81 30.1334V31.8667H18.01ZM20.01 30.6667H23.0766C23.4322 30.6667 23.6544 30.8 23.7433 31.0667C23.8322 31.3334 23.7655 31.5334 23.5433 31.6667C23.3211 31.8 23.1211 31.8667 22.9433 31.8667H20.01V30.6667ZM24.81 30.5334C24.5433 29.9112 24.0989 29.5112 23.4766 29.3334L26.01 23.2C26.2766 22.5778 26.3655 21.9778 26.2766 21.4C26.1877 20.8223 25.9877 20.2667 25.6766 19.7334C25.3655 19.2 24.9433 18.8 24.41 18.5334C23.8766 18.2667 23.2989 18.1334 22.6766 18.1334H20.01V17.2L20.1433 17.3334C20.3211 17.4223 20.4989 17.4667 20.6766 17.4667H26.9433C26.7655 18.0889 26.8544 18.6667 27.21 19.2C27.5655 19.7334 28.0989 20 28.81 20C28.3655 20.5334 28.1433 21.1556 28.1433 21.8667V26.6667C28.1433 27.0223 28.01 27.3334 27.7433 27.6L24.81 30.5334ZM28.81 18.8C28.6322 18.8 28.4766 18.7334 28.3433 18.6C28.21 18.4667 28.1433 18.3112 28.1433 18.1334C28.1433 17.9556 28.21 17.8 28.3433 17.6667C28.4766 17.5334 28.6322 17.4667 28.81 17.4667C28.9877 17.4667 29.1211 17.5334 29.21 17.6667C29.2989 17.8 29.3433 17.9556 29.3433 18.1334C29.3433 18.3112 29.2989 18.4667 29.21 18.6C29.1211 18.7334 28.9877 18.8 28.81 18.8ZM33.0766 15.6V18.8H31.8766V15.8667C32.1433 15.6889 32.41 15.6 32.6766 15.6H33.0766ZM30.6766 18.1334C30.6766 17.5112 30.41 17 29.8766 16.6C29.3433 16.2 28.7655 16.1334 28.1433 16.4V15.2L30.6766 16.1334V18.1334ZM21.8766 14.9334H26.9433V16.2667H20.9433L17.3433 12.6667L16.41 13.6L18.81 15.8667V18.1334H15.0766V10.6667H17.8766L21.4766 14.8C21.5655 14.9778 21.6989 15.0223 21.8766 14.9334ZM14.6766 3.33338C15.21 2.80005 15.9655 2.53338 16.9433 2.53338C17.4766 2.53338 17.9655 2.71116 18.41 3.06672C18.8544 3.42227 19.1655 3.86671 19.3433 4.40005H16.9433C16.7655 4.40005 16.61 4.46671 16.4766 4.60005C16.3433 4.73338 16.2766 4.88894 16.2766 5.06672V6.53338C16.2766 6.80005 16.1877 7.02227 16.01 7.20005C15.8322 7.37782 15.61 7.46671 15.3433 7.46671C15.0766 7.46671 14.8322 7.37782 14.61 7.20005C14.3877 7.02227 14.2766 6.80005 14.2766 6.53338L14.1433 5.20005C14.0544 4.48894 14.2322 3.86671 14.6766 3.33338ZM15.21 8.80005C15.8322 8.80005 16.3655 8.57783 16.81 8.13338C17.2544 7.68894 17.4766 7.1556 17.4766 6.53338V5.60005H18.81C18.81 5.77782 18.81 5.91116 18.81 6.00005L19.7433 7.20005L19.0766 7.60005C18.8989 7.68894 18.81 7.86671 18.81 8.13338V8.80005C18.81 8.97783 18.7433 9.11116 18.61 9.20005C18.4766 9.28894 18.3211 9.33338 18.1433 9.33338H15.0766V8.80005H15.21ZM15.0766 20V19.3334H22.6766C23.4766 19.3334 24.1211 19.6889 24.61 20.4C25.0989 21.1112 25.1655 21.8667 24.81 22.6667L22.1433 29.3334H20.2766L23.0766 22.1334C23.1655 21.8667 23.1433 21.6445 23.01 21.4667C22.8766 21.2889 22.7211 21.2 22.5433 21.2H16.2766C15.9211 21.2 15.6322 21.0889 15.41 20.8667C15.1877 20.6445 15.0322 20.3556 14.9433 20H15.0766ZM13.0766 22.5334H18.1433C18.3211 22.5334 18.4766 22.5778 18.61 22.6667C18.7433 22.7556 18.81 22.8889 18.81 23.0667C18.81 23.2445 18.7433 23.4 18.61 23.5334C18.4766 23.6667 18.3211 23.7334 18.1433 23.7334H13.0766C12.8989 23.7334 12.7655 23.6667 12.6766 23.5334C12.5877 23.4 12.5433 23.2445 12.5433 23.0667C12.5433 22.8889 12.5877 22.7556 12.6766 22.6667C12.7655 22.5778 12.8989 22.5334 13.0766 22.5334ZM2.54329 13.7334V13.0667C2.54329 12.8889 2.58774 12.7556 2.67663 12.6667C2.76552 12.5778 2.89885 12.5334 3.07663 12.5334H10.6766C10.8544 12.5334 10.9877 12.5778 11.0766 12.6667C11.1655 12.7556 11.21 12.8889 11.21 13.0667V13.7334H2.54329ZM2.54329 22.5334H11.21V23.7334H8.80996L2.54329 22.6667V22.5334ZM4.54329 28.1334C4.27663 28.3112 4.00996 28.5334 3.74329 28.8V28.1334H4.54329ZM9.3433 37.4667C8.72107 37.4667 8.12107 37.3112 7.54329 37C6.96552 36.6889 6.49885 36.2223 6.14329 35.6H7.74329C8.18774 36.0445 8.72107 36.2667 9.3433 36.2667C9.96552 36.2667 10.5433 36.0445 11.0766 35.6H12.6766C12.3211 36.2223 11.8544 36.6889 11.2766 37C10.6989 37.3112 10.0544 37.4667 9.3433 37.4667ZM25.8766 33.7334C25.5211 34.1778 25.0766 34.4 24.5433 34.4H2.54329C2.63218 32.7112 3.23218 31.2445 4.34329 30C5.45441 28.7556 6.85441 27.9556 8.54329 27.6L9.07663 27.4667H13.0766V26.2667H9.3433V24.9334H18.6766C18.41 25.4667 18.01 25.7778 17.4766 25.8667C16.5877 26.0445 15.8544 26.4667 15.2766 27.1334C14.6989 27.8 14.41 28.6 14.41 29.5334C14.41 30.4667 14.6766 31.2445 15.21 31.8667H10.01V33.0667H22.9433C23.6544 33.0667 24.2766 32.8445 24.81 32.4L28.6766 28.5334C29.1211 28 29.3433 27.3778 29.3433 26.6667V21.8667C29.3433 21.5112 29.4544 21.1556 29.6766 20.8C29.8989 20.4445 30.2322 20.2223 30.6766 20.1334V22.5334C30.6766 23.4223 30.9655 24.2223 31.5433 24.9334C32.1211 25.6445 32.8544 26.0445 33.7433 26.1334V27.4667H32.5433C31.3877 27.6445 30.3433 28.1334 29.41 28.9334C28.4766 29.7334 27.8766 30.7112 27.61 31.8667L25.8766 33.7334ZM33.4766 32.5334L34.2766 33.2C34.3655 33.3778 34.41 33.6 34.41 33.8667C34.41 34.1334 34.2766 34.3112 34.01 34.4C33.7433 34.4889 33.4766 34.4445 33.21 34.2667L32.6766 33.7334L33.4766 32.5334ZM33.7433 37.4667C32.5877 37.4667 31.6544 37.0223 30.9433 36.1334C31.0322 36.1334 31.1211 36.0889 31.21 36L31.7433 35.2C32.01 35.6445 32.41 35.9556 32.9433 36.1334C33.4766 36.3112 34.01 36.3112 34.5433 36.1334C35.0766 35.9556 35.4989 35.6445 35.81 35.2C36.1211 34.7556 36.2766 34.3112 36.2766 33.8667C36.2766 33.4223 36.1877 33.0223 36.01 32.6667L35.8766 32.5334H37.3433C37.5211 33.0667 37.5655 33.6445 37.4766 34.2667C37.3877 34.8889 37.1655 35.4445 36.81 35.9334C36.4544 36.4223 36.01 36.8 35.4766 37.0667C34.9433 37.3334 34.3655 37.4667 33.7433 37.4667ZM3.74329 16.2667H5.07663V20H3.74329V16.2667Z" fill="#13172B"/>
</svg>
