<svg width="15" height="14" viewBox="0 0 15 14" fill="none" xmlns="http://www.w3.org/2000/svg">
<path d="M12.6382 1.72266C13.4949 2.45182 13.9507 3.38151 14.0054 4.51172C14.06 5.64193 13.6955 6.59896 12.9116 7.38281L7.63426 12.8516C7.45196 13.0339 7.24233 13.125 7.00535 13.125C6.76837 13.125 6.55874 13.0339 6.37644 12.8516L1.0991 7.38281C0.315246 6.59896 -0.0493376 5.64193 0.00534986 4.51172C0.0600374 3.38151 0.515767 2.45182 1.37254 1.72266C2.11993 1.08464 2.98126 0.806641 3.95652 0.888672C4.93178 0.970703 5.76577 1.36719 6.45847 2.07812L7.00535 2.625L7.55222 2.07812C8.24493 1.36719 9.07892 0.970703 10.0542 0.888672C11.0294 0.806641 11.8908 1.08464 12.6382 1.72266Z" fill="#13172B"/>
</svg>
