<svg width="41" height="40" viewBox="0 0 41 40" fill="none" xmlns="http://www.w3.org/2000/svg">
<path d="M37.61 -3.8147e-06H2.41001C1.6989 -3.8147e-06 1.12112 0.222221 0.676676 0.666664C0.232232 1.11111 0.0100098 1.68889 0.0100098 2.4V33.6C0.0100098 34.2222 0.232232 34.7778 0.676676 35.2667C1.12112 35.7556 1.6989 36 2.41001 36H11.0767C11.2545 36 11.4322 35.9111 11.61 35.7333C11.7878 35.5556 11.8767 35.3556 11.8767 35.1333C11.8767 34.9111 11.7878 34.7333 11.61 34.6C11.4322 34.4667 11.2545 34.4 11.0767 34.4H2.41001C2.14334 34.4 1.94334 34.3111 1.81001 34.1333C1.67668 33.9556 1.61001 33.7778 1.61001 33.6V7.86666H38.41V33.6C38.41 33.7778 38.3433 33.9556 38.21 34.1333C38.0767 34.3111 37.8767 34.4 37.61 34.4H33.8767L25.8767 26.4C26.7656 24.7111 27.21 22.9111 27.21 21C27.21 19.0889 26.6989 17.2667 25.6767 15.5333C24.6545 13.8 23.2989 12.4444 21.61 11.4667C19.9211 10.4889 18.0767 10 16.0767 10C14.0767 10 12.2322 10.4889 10.5433 11.4667C8.85445 12.4444 7.52112 13.8 6.54334 15.5333C5.56557 17.2667 5.07668 19.1333 5.07668 21.1333C5.07668 23.1333 5.56557 24.9778 6.54334 26.6667C7.52112 28.3556 8.85445 29.6889 10.5433 30.6667C12.2322 31.6444 14.0545 32.1333 16.01 32.1333C17.9656 32.1333 19.7878 31.6889 21.4767 30.8L24.9433 34.4H18.01C17.8322 34.4 17.6767 34.4667 17.5433 34.6C17.41 34.7333 17.3433 34.9111 17.3433 35.1333C17.3433 35.3556 17.41 35.5556 17.5433 35.7333C17.6767 35.9111 17.8322 36 18.01 36H26.5433L29.61 39.0667C30.2322 39.6889 30.9878 40 31.8767 40C32.7656 40 33.5211 39.6889 34.1433 39.0667C34.4989 38.6222 34.7433 38.1333 34.8767 37.6C35.01 37.0667 34.9878 36.5333 34.81 36H37.61C38.3211 36 38.8989 35.7556 39.3433 35.2667C39.7878 34.7778 40.01 34.2222 40.01 33.6V2.4C40.01 1.68889 39.7878 1.11111 39.3433 0.666664C38.8989 0.222221 38.3211 -3.8147e-06 37.61 -3.8147e-06ZM6.54334 21.0667C6.54334 19.3778 6.96557 17.8 7.81001 16.3333C8.65445 14.8667 9.81001 13.7111 11.2767 12.8667C12.7433 12.0222 14.3433 11.6 16.0767 11.6C17.81 11.6 19.41 12.0222 20.8767 12.8667C22.3433 13.7111 23.4989 14.8667 24.3433 16.3333C25.1878 17.8 25.61 19.4 25.61 21.1333C25.61 22.8667 25.1878 24.4444 24.3433 25.8667C23.4989 27.2889 22.3433 28.4444 20.8767 29.3333C19.41 30.2222 17.81 30.6667 16.0767 30.6667C14.3433 30.6667 12.7433 30.2222 11.2767 29.3333C9.81001 28.4444 8.65445 27.2889 7.81001 25.8667C6.96557 24.4444 6.54334 22.8444 6.54334 21.0667ZM24.9433 27.7333L26.41 29.2L24.2767 31.4667L22.81 30C23.61 29.3778 24.3211 28.6222 24.9433 27.7333ZM32.9433 38C32.6767 38.2667 32.3211 38.4 31.8767 38.4C31.4322 38.4 31.0767 38.2667 30.81 38L25.3433 32.5333L27.61 30.4L32.9433 35.7333C33.2989 36.0889 33.4767 36.4667 33.4767 36.8667C33.4767 37.2667 33.2989 37.6444 32.9433 38ZM1.61001 6.26667V2.4C1.61001 2.13333 1.67668 1.93333 1.81001 1.8C1.94334 1.66666 2.14334 1.6 2.41001 1.6H37.61C37.8767 1.6 38.0767 1.66666 38.21 1.8C38.3433 1.93333 38.41 2.13333 38.41 2.4V6.26667H1.61001ZM35.0767 3.06667H18.1433C17.9656 3.06667 17.7878 3.15555 17.61 3.33333C17.4322 3.51111 17.3433 3.71111 17.3433 3.93333C17.3433 4.15555 17.4322 4.33333 17.61 4.46666C17.7878 4.6 17.9656 4.66666 18.1433 4.66666H35.0767C35.2545 4.66666 35.41 4.6 35.5433 4.46666C35.6767 4.33333 35.7433 4.15555 35.7433 3.93333C35.7433 3.71111 35.6767 3.51111 35.5433 3.33333C35.41 3.15555 35.21 3.06667 34.9433 3.06667H35.0767ZM8.41001 3.06667C8.23223 3.06667 8.05445 3.15555 7.87668 3.33333C7.6989 3.51111 7.61001 3.71111 7.61001 3.93333C7.61001 4.15555 7.6989 4.33333 7.87668 4.46666C8.05445 4.6 8.25445 4.66666 8.47668 4.66666C8.6989 4.66666 8.87668 4.6 9.01001 4.46666C9.14334 4.33333 9.21001 4.15555 9.21001 3.93333C9.21001 3.71111 9.14334 3.51111 9.01001 3.33333C8.87668 3.15555 8.67668 3.06667 8.41001 3.06667ZM5.07668 3.06667C4.81001 3.06667 4.61001 3.15555 4.47668 3.33333C4.34334 3.51111 4.27668 3.71111 4.27668 3.93333C4.27668 4.15555 4.34334 4.33333 4.47668 4.46666C4.61001 4.6 4.78779 4.66666 5.01001 4.66666C5.23223 4.66666 5.41001 4.6 5.54334 4.46666C5.67668 4.33333 5.74334 4.15555 5.74334 3.93333C5.74334 3.71111 5.67668 3.51111 5.54334 3.33333C5.41001 3.15555 5.21001 3.06667 4.94334 3.06667H5.07668ZM11.8767 3.06667C11.6989 3.06667 11.5211 3.15555 11.3433 3.33333C11.1656 3.51111 11.0767 3.71111 11.0767 3.93333C11.0767 4.15555 11.1656 4.33333 11.3433 4.46666C11.5211 4.6 11.6989 4.66666 11.8767 4.66666C12.0545 4.66666 12.2322 4.6 12.41 4.46666C12.5878 4.33333 12.6767 4.15555 12.6767 3.93333C12.6767 3.71111 12.5878 3.51111 12.41 3.33333C12.2322 3.15555 12.0545 3.06667 11.8767 3.06667ZM16.1433 20.5333C15.8767 20.5333 15.6767 20.6222 15.5433 20.8C15.41 20.9778 15.3433 21.1556 15.3433 21.3333V24.4C15.3433 24.5778 15.41 24.7556 15.5433 24.9333C15.6767 25.1111 15.8545 25.2 16.0767 25.2C16.2989 25.2 16.4989 25.1111 16.6767 24.9333C16.8545 24.7556 16.9433 24.5778 16.9433 24.4V21.3333C16.9433 21.1556 16.8545 20.9778 16.6767 20.8C16.4989 20.6222 16.3211 20.5333 16.1433 20.5333ZM16.1433 17.0667C15.8767 17.0667 15.6767 17.1333 15.5433 17.2667C15.41 17.4 15.3433 17.5778 15.3433 17.8C15.3433 18.0222 15.41 18.2 15.5433 18.3333C15.6767 18.4667 15.8545 18.5333 16.0767 18.5333C16.2989 18.5333 16.4989 18.4667 16.6767 18.3333C16.8545 18.2 16.9433 18.0222 16.9433 17.8C16.9433 17.5778 16.8545 17.4 16.6767 17.2667C16.4989 17.1333 16.3211 17.0667 16.1433 17.0667ZM16.1433 13.0667C14.7211 13.0667 13.3878 13.4444 12.1433 14.2C10.8989 14.9556 9.92112 15.9333 9.21001 17.1333C8.4989 18.3333 8.14334 19.6444 8.14334 21.0667C8.14334 22.4889 8.4989 23.8222 9.21001 25.0667C9.92112 26.3111 10.8989 27.2889 12.1433 28C13.3878 28.7111 14.7211 29.0667 16.1433 29.0667C17.5656 29.0667 18.8767 28.7111 20.0767 28C21.2767 27.2889 22.2322 26.3111 22.9433 25.0667C23.6545 23.8222 24.01 22.4889 24.01 21.0667C24.01 19.6444 23.6545 18.3333 22.9433 17.1333C22.2322 15.9333 21.2767 14.9556 20.0767 14.2C18.8767 13.4444 17.5656 13.0667 16.1433 13.0667ZM16.1433 27.4667C14.3656 27.4667 12.8545 26.8444 11.61 25.6C10.3656 24.3556 9.74334 22.8444 9.74334 21.0667C9.74334 19.2889 10.3656 17.7778 11.61 16.5333C12.8545 15.2889 14.3656 14.6667 16.1433 14.6667C17.9211 14.6667 19.4322 15.2889 20.6767 16.5333C21.9211 17.7778 22.5433 19.2889 22.5433 21.0667C22.5433 22.8444 21.9211 24.3556 20.6767 25.6C19.4322 26.8444 17.9211 27.4667 16.1433 27.4667ZM28.2767 15.7333C28.2767 16 28.3656 16.2 28.5433 16.3333C28.7211 16.4667 28.8989 16.5333 29.0767 16.5333H35.0767C35.2545 16.5333 35.41 16.4667 35.5433 16.3333C35.6767 16.2 35.7433 16.0222 35.7433 15.8C35.7433 15.5778 35.6767 15.4 35.5433 15.2667C35.41 15.1333 35.21 15.0667 34.9433 15.0667H29.0767C28.8989 15.0667 28.7211 15.1333 28.5433 15.2667C28.3656 15.4 28.2767 15.5556 28.2767 15.7333ZM29.0767 11.2H27.4767C27.2989 11.2 27.1211 11.2889 26.9433 11.4667C26.7656 11.6444 26.6767 11.8444 26.6767 12.0667C26.6767 12.2889 26.7656 12.4667 26.9433 12.6C27.1211 12.7333 27.2989 12.8 27.4767 12.8H29.0767C29.3433 12.8 29.5433 12.7333 29.6767 12.6C29.81 12.4667 29.8767 12.2889 29.8767 12.0667C29.8767 11.8444 29.81 11.6444 29.6767 11.4667C29.5433 11.2889 29.3433 11.2 29.0767 11.2ZM35.0767 12.8C35.2545 12.8 35.41 12.7333 35.5433 12.6C35.6767 12.4667 35.7433 12.2889 35.7433 12.0667C35.7433 11.8444 35.6767 11.6444 35.5433 11.4667C35.41 11.2889 35.21 11.2 34.9433 11.2H32.5433C32.2767 11.2 32.0767 11.2889 31.9433 11.4667C31.81 11.6444 31.7433 11.8444 31.7433 12.0667C31.7433 12.2889 31.81 12.4667 31.9433 12.6C32.0767 12.7333 32.2767 12.8 32.5433 12.8H35.0767ZM35.0767 18.8H33.0767C32.8989 18.8 32.7211 18.8667 32.5433 19C32.3656 19.1333 32.2767 19.3111 32.2767 19.5333C32.2767 19.7556 32.3656 19.9333 32.5433 20.0667C32.7211 20.2 32.8989 20.2667 33.0767 20.2667H35.0767C35.2545 20.2667 35.41 20.2 35.5433 20.0667C35.6767 19.9333 35.7433 19.7556 35.7433 19.5333C35.7433 19.3111 35.6767 19.1333 35.5433 19C35.41 18.8667 35.21 18.8 34.9433 18.8H35.0767ZM14.5433 34.4C14.3656 34.4 14.1878 34.4667 14.01 34.6C13.8322 34.7333 13.7433 34.9111 13.7433 35.1333C13.7433 35.3556 13.8322 35.5556 14.01 35.7333C14.1878 35.9111 14.3878 36 14.61 36C14.8322 36 15.01 35.9111 15.1433 35.7333C15.2767 35.5556 15.3433 35.3556 15.3433 35.1333C15.3433 34.9111 15.2767 34.7333 15.1433 34.6C15.01 34.4667 14.81 34.4 14.5433 34.4Z" fill="#13172B"/>
</svg>
