<svg width="30" height="24" viewBox="0 0 30 24" fill="none" xmlns="http://www.w3.org/2000/svg">
<path d="M29.25 16.5C29.4688 16.5 29.6484 16.5703 29.7891 16.7109C29.9297 16.8516 30 17.0312 30 17.25V18.75C30 18.9688 29.9297 19.1484 29.7891 19.2891C29.6484 19.4297 29.4688 19.5 29.25 19.5H27C27 20.75 26.5625 21.8125 25.6875 22.6875C24.8125 23.5625 23.75 24 22.5 24C21.25 24 20.1875 23.5625 19.3125 22.6875C18.4375 21.8125 18 20.75 18 19.5H12C12 20.75 11.5625 21.8125 10.6875 22.6875C9.8125 23.5625 8.75 24 7.5 24C6.25 24 5.1875 23.5625 4.3125 22.6875C3.4375 21.8125 3 20.75 3 19.5V13.5H10.125C10.375 13.5 10.5 13.375 10.5 13.125V12.375C10.5 12.125 10.375 12 10.125 12H0.375C0.125 12 0 11.875 0 11.625V10.875C0 10.625 0.125 10.5 0.375 10.5H11.625C11.875 10.5 12 10.375 12 10.125V9.375C12 9.125 11.875 9 11.625 9H1.875C1.625 9 1.5 8.875 1.5 8.625V7.875C1.5 7.625 1.625 7.5 1.875 7.5H13.125C13.375 7.5 13.5 7.375 13.5 7.125V6.375C13.5 6.125 13.375 6 13.125 6H0.375C0.125 6 0 5.875 0 5.625V4.875C0 4.625 0.125 4.5 0.375 4.5H3V2.25C3 1.625 3.21875 1.09375 3.65625 0.65625C4.09375 0.21875 4.625 0 5.25 0H17.25C17.875 0 18.4062 0.21875 18.8438 0.65625C19.2812 1.09375 19.5 1.625 19.5 2.25V4.5H21.5625C22.1875 4.5 22.7188 4.71875 23.1562 5.15625L27.8438 9.84375C28.2812 10.2812 28.5 10.8125 28.5 11.4375V16.5H29.25ZM5.90625 21.0938C5.90625 21.0938 6.01562 21.2031 6.23438 21.4219C6.45312 21.6406 6.875 21.75 7.5 21.75C8.125 21.75 8.65625 21.5312 9.09375 21.0938C9.53125 20.6562 9.75 20.125 9.75 19.5C9.75 18.875 9.53125 18.3438 9.09375 17.9062C8.65625 17.4688 8.125 17.25 7.5 17.25C6.875 17.25 6.34375 17.4688 5.90625 17.9062C5.46875 18.3438 5.25 18.875 5.25 19.5C5.25 20.125 5.46875 20.6562 5.90625 21.0938ZM20.9062 21.0938C20.9062 21.0938 21.0156 21.2031 21.2344 21.4219C21.4531 21.6406 21.875 21.75 22.5 21.75C23.125 21.75 23.6562 21.5312 24.0938 21.0938C24.5312 20.6562 24.75 20.125 24.75 19.5C24.75 18.875 24.5312 18.3438 24.0938 17.9062C23.6562 17.4688 23.125 17.25 22.5 17.25C21.875 17.25 21.3438 17.4688 20.9062 17.9062C20.4688 18.3438 20.25 18.875 20.25 19.5C20.25 20.125 20.4688 20.6562 20.9062 21.0938ZM26.25 12V11.4375L21.5625 6.75H19.5V12H26.25Z" fill="#13172B"/>
</svg>
