<svg width="18" height="18" viewBox="0 0 18 18" fill="none" xmlns="http://www.w3.org/2000/svg">
<path d="M17.4727 12.7266C17.8242 12.8672 18 13.125 18 13.5C18 13.5703 17.9883 13.6289 17.9648 13.6758L17.1211 17.332C17.0273 17.7773 16.7578 18 16.3125 18C11.8125 18 7.96875 16.4062 4.78125 13.2188C1.59375 10.0312 0 6.1875 0 1.6875C0 1.24219 0.222656 0.972656 0.667969 0.878906L4.32422 0.0351562C4.37109 0.0117188 4.42969 0 4.5 0C4.875 0 5.13281 0.175781 5.27344 0.527344L6.96094 4.46484C7.00781 4.55859 7.03125 4.66406 7.03125 4.78125C7.03125 5.03906 6.92578 5.26172 6.71484 5.44922L4.60547 7.17188C5.91797 10.0078 7.99219 12.082 10.8281 13.3945L12.5508 11.2852C12.7383 11.0742 12.9609 10.9688 13.2188 10.9688C13.3359 10.9688 13.4414 10.9922 13.5352 11.0391L17.4727 12.7266Z" fill="#13172B"/>
</svg>
