<svg width="25" height="24" viewBox="0 0 25 24" fill="none" xmlns="http://www.w3.org/2000/svg">
<path d="M21.481 3C22.606 3.96875 23.356 5.11719 23.731 6.44531C24.106 7.77344 24.1216 9.04688 23.7779 10.2656C23.4341 11.4844 22.8404 12.5312 21.9966 13.4062L13.7935 21.75C13.2935 22.25 12.6997 22.5 12.0122 22.5C11.3247 22.5 10.731 22.25 10.231 21.75L2.02785 13.4062C1.1841 12.5312 0.590353 11.4766 0.246603 10.2422C-0.0971467 9.00781 -0.0815217 7.73438 0.293478 6.42188C0.668478 5.10938 1.41848 3.96875 2.54348 3C3.88723 1.875 5.47317 1.38281 7.30129 1.52344C9.12942 1.66406 10.6997 2.39062 12.0122 3.70312C13.3247 2.39062 14.895 1.66406 16.7232 1.52344C18.5513 1.38281 20.1372 1.875 21.481 3ZM20.4029 11.8125C21.3091 10.875 21.7622 9.72656 21.7622 8.36719C21.7622 7.00781 21.1997 5.79688 20.0747 4.73438C19.1372 3.98438 18.0513 3.65625 16.8169 3.75C15.5825 3.84375 14.5279 4.34375 13.6529 5.25L12.0122 6.89062L10.3716 5.25C9.4966 4.34375 8.44192 3.84375 7.20754 3.75C5.97317 3.65625 4.88723 3.98438 3.94973 4.73438C2.82473 5.79688 2.26223 7.00781 2.26223 8.36719C2.26223 9.72656 2.71535 10.875 3.6216 11.8125L11.8716 20.1562C11.9654 20.2812 12.0591 20.2812 12.1529 20.1562L20.4029 11.8125Z" fill="#13172B"/>
</svg>
