<svg width="10" height="16" viewBox="0 0 10 16" fill="none" xmlns="http://www.w3.org/2000/svg">
<path d="M4.46875 11L0.21875 6.75C0.0729167 6.60417 0 6.42708 0 6.21875C0 6.01042 0.0729167 5.83333 0.21875 5.6875L0.9375 5C1.08333 4.85417 1.26042 4.78125 1.46875 4.78125C1.67708 4.78125 1.85417 4.85417 2 5L5 8L8 5C8.14583 4.85417 8.32292 4.78125 8.53125 4.78125C8.73958 4.78125 8.91667 4.85417 9.0625 5L9.78125 5.6875C9.92708 5.83333 10 6.01042 10 6.21875C10 6.42708 9.92708 6.60417 9.78125 6.75L5.53125 11C5.38542 11.1458 5.20833 11.2188 5 11.2188C4.79167 11.2188 4.61458 11.1458 4.46875 11Z" fill="#13172B"/>
</svg>
