<svg width="41" height="40" viewBox="0 0 41 40" fill="none" xmlns="http://www.w3.org/2000/svg">
<path d="M9.47668 28.8C9.65446 28.8 9.81001 28.7333 9.94334 28.6C10.0767 28.4667 10.1433 28.3333 10.1433 28.2C10.1433 28.0667 10.0767 27.9333 9.94334 27.8C9.81001 27.6667 9.65446 27.6 9.47668 27.6C8.23223 27.6 7.27668 27.8444 6.61001 28.3333C5.94334 28.8222 5.52112 29.4667 5.34334 30.2667H4.67668C4.4989 30.2667 4.36557 30.3111 4.27668 30.4C4.18779 30.4889 4.14334 30.6222 4.14334 30.8C4.14334 30.9778 4.18779 31.1333 4.27668 31.2667C4.36557 31.4 4.4989 31.4667 4.67668 31.4667H5.07668V32.4H4.67668C4.4989 32.4 4.36557 32.4667 4.27668 32.6C4.18779 32.7333 4.14334 32.8667 4.14334 33C4.14334 33.1333 4.18779 33.2667 4.27668 33.4C4.36557 33.5333 4.4989 33.6 4.67668 33.6H5.34334C5.52112 34.4 5.94334 35.0444 6.61001 35.5333C7.27668 36.0222 8.23223 36.2667 9.47668 36.2667C9.65446 36.2667 9.81001 36.2 9.94334 36.0667C10.0767 35.9333 10.1433 35.7778 10.1433 35.6C10.1433 35.4222 10.0767 35.2889 9.94334 35.2C9.81001 35.1111 9.65446 35.0667 9.47668 35.0667C7.96557 35.0667 6.98779 34.5778 6.54334 33.6H8.67668C8.76557 33.6 8.87668 33.5333 9.01001 33.4C9.14334 33.2667 9.21001 33.1333 9.21001 33C9.21001 32.8667 9.14334 32.7333 9.01001 32.6C8.87668 32.4667 8.76557 32.4 8.67668 32.4H6.27668V31.4667H8.67668C8.76557 31.4667 8.87668 31.4 9.01001 31.2667C9.14334 31.1333 9.21001 30.9778 9.21001 30.8C9.21001 30.6222 9.14334 30.4889 9.01001 30.4C8.87668 30.3111 8.76557 30.2667 8.67668 30.2667H6.54334C6.98779 29.2889 7.96557 28.8 9.47668 28.8ZM29.3433 8.4H30.5433V8.53333C30.5433 8.88889 30.5211 9.17778 30.4767 9.4C30.4322 9.62222 30.2322 9.95555 29.8767 10.4L29.3433 11.2C29.1656 11.3778 29.1433 11.5778 29.2767 11.8C29.41 12.0222 29.5656 12.1333 29.7433 12.1333H34.5433C34.7211 12.1333 34.8767 12.0667 35.01 11.9333C35.1433 11.8 35.21 11.6667 35.21 11.5333C35.21 11.4 35.1433 11.2667 35.01 11.1333C34.8767 11 34.7211 10.9333 34.5433 10.9333H30.9433C31.2989 10.4889 31.5211 10.0889 31.61 9.73333C31.6989 9.37778 31.7433 8.93333 31.7433 8.4H32.81C32.9878 8.4 33.1211 8.35555 33.21 8.26666C33.2989 8.17778 33.3433 8.04444 33.3433 7.86666C33.3433 7.68889 33.2989 7.53333 33.21 7.4C33.1211 7.26667 32.9878 7.2 32.81 7.2H31.3433C30.9878 6.57778 30.81 6.04444 30.81 5.6C30.81 5.15555 30.9656 4.84444 31.2767 4.66666C31.5878 4.48889 31.9211 4.4 32.2767 4.4C32.6322 4.4 32.9433 4.48889 33.21 4.66666C33.5656 4.93333 33.7878 5.17778 33.8767 5.4C33.9656 5.62222 34.0767 5.77777 34.21 5.86666C34.3433 5.95555 34.4767 5.97778 34.61 5.93333C34.7433 5.88889 34.8545 5.8 34.9433 5.66666C35.0322 5.53333 35.0767 5.37778 35.0767 5.2C34.8989 4.57777 34.4545 4.04444 33.7433 3.6C33.2989 3.33333 32.7878 3.2 32.21 3.2C31.6322 3.2 31.1211 3.33333 30.6767 3.6C29.9656 4.04444 29.61 4.71111 29.61 5.6C29.61 6.04444 29.7433 6.57778 30.01 7.2H29.3433C29.2545 7.2 29.1433 7.26667 29.01 7.4C28.8767 7.53333 28.81 7.68889 28.81 7.86666C28.81 8.04444 28.8767 8.17778 29.01 8.26666C29.1433 8.35555 29.2545 8.4 29.3433 8.4ZM36.1433 25.2C36.7656 23.3333 37.0767 21.4222 37.0767 19.4667C37.0767 17.7778 36.8545 16.1778 36.41 14.6667C37.4767 13.9556 38.3433 13 39.01 11.8C39.6767 10.6 40.01 9.31111 40.01 7.93333C40.01 6.55555 39.6545 5.24444 38.9433 4C38.2322 2.75555 37.2545 1.77777 36.01 1.06667C34.7656 0.355553 33.4545 -3.8147e-06 32.0767 -3.8147e-06C30.6989 -3.8147e-06 29.4545 0.311108 28.3433 0.933331C27.2322 1.55555 26.2767 2.35555 25.4767 3.33333C23.7878 2.8 21.9878 2.53333 20.0767 2.53333C18.1656 2.53333 16.3211 2.84444 14.5433 3.46666C13.8322 2.4 12.8989 1.55555 11.7433 0.933331C10.5878 0.311108 9.32112 -3.8147e-06 7.94334 -3.8147e-06C6.56557 -3.8147e-06 5.25445 0.355553 4.01001 1.06667C2.76557 1.77777 1.78779 2.75555 1.07668 4C0.365565 5.24444 0.0100098 6.57778 0.0100098 8C0.0100098 9.42222 0.343343 10.7333 1.01001 11.9333C1.67668 13.1333 2.63223 14.0889 3.87668 14.8C3.43223 16.3111 3.21001 17.8667 3.21001 19.4667C3.21001 21.4222 3.52112 23.2889 4.14334 25.0667C2.8989 25.7778 1.8989 26.7556 1.14334 28C0.387788 29.2444 0.0100098 30.5778 0.0100098 32C0.0100098 33.4222 0.365565 34.7556 1.07668 36C1.78779 37.2444 2.76557 38.2222 4.01001 38.9333C5.25445 39.6444 6.61001 40 8.07668 40C9.54334 40 10.8989 39.6 12.1433 38.8C13.3878 38 14.3656 36.9333 15.0767 35.6C16.6767 36.1333 18.3433 36.4 20.0767 36.4C21.81 36.4 23.4322 36.1778 24.9433 35.7333C25.6545 36.9778 26.6322 38 27.8767 38.8C29.1211 39.6 30.4767 40 31.9433 40C33.41 40 34.7656 39.6444 36.01 38.9333C37.2545 38.2222 38.2322 37.2444 38.9433 36C39.6545 34.7556 40.01 33.4222 40.01 32C40.01 30.5778 39.6545 29.2667 38.9433 28.0667C38.2322 26.8667 37.2989 25.9111 36.1433 25.2ZM32.01 1.2C33.8767 1.2 35.4767 1.86666 36.81 3.2C38.1433 4.53333 38.81 6.13333 38.81 8C38.81 9.86666 38.1433 11.4667 36.81 12.8C35.4767 14.1333 33.8767 14.8 32.01 14.8C30.1433 14.8 28.5433 14.1333 27.21 12.8C25.8767 11.4667 25.21 9.86666 25.21 8C25.21 6.13333 25.8767 4.53333 27.21 3.2C28.5433 1.86666 30.1433 1.2 32.01 1.2ZM33.3433 15.8667C34.0545 15.6889 34.7211 15.4667 35.3433 15.2C35.6989 16.6222 35.8767 18.0444 35.8767 19.4667C35.8767 21.2444 35.61 22.9778 35.0767 24.6667C34.3656 24.4 33.6545 24.2222 32.9433 24.1333C33.4767 22.6222 33.7433 21.0667 33.7433 19.4667C33.7433 18.2222 33.61 17.0222 33.3433 15.8667ZM20.1433 3.73333C21.7433 3.73333 23.3433 3.95555 24.9433 4.4C24.5878 5.02222 24.3656 5.68889 24.2767 6.4C22.9433 5.95555 21.5433 5.73333 20.0767 5.73333C18.61 5.73333 17.1656 6 15.7433 6.53333C15.6545 5.82222 15.4322 5.15555 15.0767 4.53333C16.7656 4 18.4545 3.73333 20.1433 3.73333ZM1.21001 8C1.21001 6.13333 1.87668 4.53333 3.21001 3.2C4.54334 1.86666 6.14334 1.2 8.01001 1.2C9.87668 1.2 11.4767 1.86666 12.81 3.2C14.1433 4.53333 14.81 6.13333 14.81 8C14.81 9.86666 14.1433 11.4667 12.81 12.8C11.4767 14.1333 9.87668 14.8 8.01001 14.8C6.14334 14.8 4.54334 14.1333 3.21001 12.8C1.87668 11.4667 1.21001 9.86666 1.21001 8ZM7.21001 24.1333C6.4989 24.2222 5.83223 24.3556 5.21001 24.5333C4.58779 22.9333 4.27668 21.2444 4.27668 19.4667C4.27668 18.0444 4.4989 16.6667 4.94334 15.3333C5.56557 15.6 6.23223 15.7778 6.94334 15.8667C6.58779 17.0222 6.41001 18.2222 6.41001 19.4667C6.41001 21.0667 6.67668 22.6222 7.21001 24.1333ZM8.01001 38.8C6.14334 38.8 4.54334 38.1333 3.21001 36.8C1.87668 35.4667 1.21001 33.8667 1.21001 32C1.21001 30.1333 1.87668 28.5333 3.21001 27.2C4.54334 25.8667 6.14334 25.2 8.01001 25.2C9.87668 25.2 11.4767 25.8667 12.81 27.2C14.1433 28.5333 14.81 30.1333 14.81 32C14.81 33.8667 14.1433 35.4667 12.81 36.8C11.4767 38.1333 9.87668 38.8 8.01001 38.8ZM20.1433 35.2C18.5433 35.2 16.9878 34.9778 15.4767 34.5333C15.7433 33.9111 15.8767 33.2444 15.8767 32.5333C17.2989 32.9778 18.6989 33.2 20.0767 33.2C21.4545 33.2 22.81 32.9778 24.1433 32.5333C24.1433 33.2444 24.2767 33.9556 24.5433 34.6667C23.1211 35.0222 21.6545 35.2 20.1433 35.2ZM24.1433 31.3333C22.81 31.7778 21.4322 32 20.01 32C18.5878 32 17.21 31.7333 15.8767 31.2C15.6989 29.3333 14.8989 27.7111 13.4767 26.3333C12.0545 24.9556 10.41 24.2222 8.54334 24.1333C7.92112 22.6222 7.61001 21.0667 7.61001 19.4667C7.61001 18.2222 7.78779 17.0222 8.14334 15.8667C10.2767 15.8667 12.0989 15.0889 13.61 13.5333C15.1211 11.9778 15.8767 10.1333 15.8767 8V7.73333C17.2989 7.2 18.6989 6.93333 20.0767 6.93333C21.4545 6.93333 22.81 7.15556 24.1433 7.6V8C24.1433 9.42222 24.4989 10.7333 25.21 11.9333C25.9211 13.1333 26.8767 14.0889 28.0767 14.8C29.2767 15.5111 30.5878 15.8667 32.01 15.8667H32.1433C32.4989 17.0222 32.6767 18.2222 32.6767 19.4667C32.6767 21.0667 32.3656 22.6222 31.7433 24.1333C29.7878 24.1333 28.0767 24.8444 26.61 26.2667C25.1433 27.6889 24.3211 29.3778 24.1433 31.3333ZM32.01 38.8C30.1433 38.8 28.5433 38.1333 27.21 36.8C25.8767 35.4667 25.21 33.8667 25.21 32C25.21 30.1333 25.8767 28.5333 27.21 27.2C28.5433 25.8667 30.1433 25.2 32.01 25.2C33.8767 25.2 35.4767 25.8667 36.81 27.2C38.1433 28.5333 38.81 30.1333 38.81 32C38.81 33.8667 38.1433 35.4667 36.81 36.8C35.4767 38.1333 33.8767 38.8 32.01 38.8ZM34.81 27.7333C34.6322 27.6444 34.4767 27.6222 34.3433 27.6667C34.21 27.7111 34.0989 27.8222 34.01 28L32.01 30.8L30.1433 27.8667C30.0545 27.7778 29.9211 27.7111 29.7433 27.6667C29.5656 27.6222 29.41 27.6444 29.2767 27.7333C29.1433 27.8222 29.0767 27.9556 29.0767 28.1333C29.0767 28.3111 29.1211 28.4444 29.21 28.5333L31.21 31.6H29.61C29.4322 31.6 29.2989 31.6667 29.21 31.8C29.1211 31.9333 29.0767 32.0889 29.0767 32.2667C29.0767 32.4444 29.1211 32.5778 29.21 32.6667C29.2989 32.7556 29.4322 32.8 29.61 32.8H31.4767V33.6H29.61C29.4322 33.6 29.2989 33.6667 29.21 33.8C29.1211 33.9333 29.0767 34.0889 29.0767 34.2667C29.0767 34.4444 29.1211 34.5778 29.21 34.6667C29.2989 34.7556 29.4322 34.8 29.61 34.8H31.4767V35.8667C31.4767 36.0444 31.5211 36.1778 31.61 36.2667C31.6989 36.3556 31.8322 36.4 32.01 36.4C32.1878 36.4 32.3433 36.3556 32.4767 36.2667C32.61 36.1778 32.6767 36.0444 32.6767 35.8667V34.8H34.41C34.5878 34.8 34.7433 34.7556 34.8767 34.6667C35.01 34.5778 35.0767 34.4444 35.0767 34.2667C35.0767 34.0889 35.01 33.9333 34.8767 33.8C34.7433 33.6667 34.5878 33.6 34.41 33.6H32.6767V32.8H34.41C34.5878 32.8 34.7433 32.7556 34.8767 32.6667C35.01 32.5778 35.0767 32.4444 35.0767 32.2667C35.0767 32.0889 35.01 31.9333 34.8767 31.8C34.7433 31.6667 34.5878 31.6 34.41 31.6H32.9433L34.9433 28.5333C35.0322 28.4444 35.0545 28.3111 35.01 28.1333C34.9656 27.9556 34.8989 27.8222 34.81 27.7333ZM8.54334 12.2667V11.8667C8.98779 11.6889 9.38779 11.4222 9.74334 11.0667C10.0989 10.7111 10.3211 10.2889 10.41 9.8C10.4989 9.31111 10.41 8.82222 10.1433 8.33333C9.87668 7.84444 9.43223 7.51111 8.81001 7.33333L8.54334 7.2V5.2C8.72112 5.28889 8.85445 5.37778 8.94334 5.46666C9.03223 5.55555 9.16557 5.6 9.34334 5.6C9.52112 5.6 9.65446 5.53333 9.74334 5.4C9.83223 5.26667 9.87668 5.13333 9.87668 5C9.87668 4.86666 9.83223 4.71111 9.74334 4.53333C9.38779 4.26667 8.98779 4.08889 8.54334 4V3.6C8.54334 3.42222 8.47668 3.28889 8.34334 3.2C8.21001 3.11111 8.07668 3.06667 7.94334 3.06667C7.81001 3.06667 7.67668 3.11111 7.54334 3.2C7.41001 3.28889 7.34334 3.42222 7.34334 3.6V4L7.21001 4.13333C6.85445 4.22222 6.54334 4.4 6.27668 4.66666C6.01001 4.93333 5.83223 5.28889 5.74334 5.73333C5.65445 6.44444 5.87668 7.02222 6.41001 7.46666C6.67668 7.64444 6.98779 7.82222 7.34334 8V10.6667C7.07668 10.6667 6.76557 10.5778 6.41001 10.4C6.32112 10.3111 6.18779 10.2667 6.01001 10.2667C5.83223 10.2667 5.6989 10.3333 5.61001 10.4667C5.52112 10.6 5.4989 10.7556 5.54334 10.9333C5.58779 11.1111 5.6989 11.2444 5.87668 11.3333C6.32112 11.6889 6.81001 11.8667 7.34334 11.8667V12.2667C7.34334 12.4444 7.41001 12.6 7.54334 12.7333C7.67668 12.8667 7.81001 12.9333 7.94334 12.9333C8.07668 12.9333 8.21001 12.8667 8.34334 12.7333C8.47668 12.6 8.54334 12.4444 8.54334 12.2667ZM8.54334 8.53333C9.07668 8.71111 9.2989 9.04444 9.21001 9.53333C9.12112 10.0222 8.8989 10.3556 8.54334 10.5333V8.53333ZM7.34334 6.66666C7.25445 6.66666 7.14334 6.62222 7.01001 6.53333C6.87668 6.44444 6.85445 6.24444 6.94334 5.93333C7.03223 5.62222 7.16557 5.42222 7.34334 5.33333V6.66666ZM20.01 12.4C17.8767 12.4 16.0767 13.1333 14.61 14.6C13.1433 16.0667 12.41 17.8667 12.41 20C12.41 22.1333 13.1433 23.9333 14.61 25.4C16.0767 26.8667 17.8767 27.6 20.01 27.6C22.1433 27.6 23.9433 26.8667 25.41 25.4C26.8767 23.9333 27.61 22.1333 27.61 20C27.61 17.8667 26.8767 16.0667 25.41 14.6C23.9433 13.1333 22.1433 12.4 20.01 12.4ZM25.7433 17.0667H23.4767C23.2989 16.2667 23.0767 15.5111 22.81 14.8L22.41 14C23.9211 14.6222 25.0322 15.6444 25.7433 17.0667ZM22.6767 20C22.6767 20.6222 22.6322 21.2 22.5433 21.7333H17.4767C17.3878 21.2 17.3433 20.6222 17.3433 20C17.3433 19.3778 17.3878 18.8 17.4767 18.2667H22.5433C22.6322 18.8 22.6767 19.3778 22.6767 20ZM20.01 13.6C20.4545 13.6 20.8989 13.9111 21.3433 14.5333C21.7878 15.1556 22.0989 16 22.2767 17.0667H17.7433C17.9211 16 18.2322 15.1556 18.6767 14.5333C19.1211 13.9111 19.5656 13.6 20.01 13.6ZM17.61 14C17.4322 14.2667 17.2989 14.5333 17.21 14.8C16.9433 15.5111 16.7211 16.2667 16.5433 17.0667H14.2767C14.9878 15.6444 16.0989 14.6222 17.61 14ZM13.61 20C13.61 19.3778 13.6989 18.8 13.8767 18.2667H16.2767C16.2767 18.8 16.2767 19.3778 16.2767 20C16.2767 20.6222 16.2767 21.2 16.2767 21.7333H13.8767C13.6989 21.2 13.61 20.6222 13.61 20ZM14.2767 22.9333H16.5433C16.7211 23.7333 16.9433 24.4889 17.21 25.2L17.61 26C16.0989 25.3778 14.9878 24.3556 14.2767 22.9333ZM20.01 26.4C19.5656 26.4 19.1211 26.0889 18.6767 25.4667C18.2322 24.8444 17.9211 24 17.7433 22.9333H22.2767C22.0989 24 21.7878 24.8444 21.3433 25.4667C20.8989 26.0889 20.4545 26.4 20.01 26.4ZM22.41 26C22.5878 25.7333 22.7211 25.4667 22.81 25.2C23.0767 24.4889 23.2989 23.7333 23.4767 22.9333H25.7433C25.0322 24.3556 23.9211 25.3778 22.41 26ZM23.7433 21.7333C23.7433 21.2 23.7433 20.6222 23.7433 20C23.7433 19.3778 23.7433 18.8 23.7433 18.2667H26.1433C26.3211 18.8 26.41 19.3778 26.41 20C26.41 20.6222 26.3211 21.2 26.1433 21.7333H23.7433Z" fill="#13172B"/>
</svg>
