<svg width="41" height="40" viewBox="0 0 41 40" fill="none" xmlns="http://www.w3.org/2000/svg">
<path d="M13.4767 30.6667C13.4767 30.5778 13.4767 30.5333 13.4767 30.5333L13.3433 30.4L13.0767 30H12.5433L12.1433 30.2667L12.01 30.6667V31.0667L12.2767 31.4667L12.6767 31.6L13.21 31.4667L13.4767 31.0667V30.6667ZM36.01 30.8C35.9211 30.8 35.8767 30.8 35.8767 30.8C35.5211 30 34.9656 29.4444 34.21 29.1333C33.4545 28.8222 32.5433 28.8444 31.4767 29.2L26.1433 30.6667C25.7878 29.6889 25.0322 28.9778 23.8767 28.5333L17.8767 26.5333C17.4322 26 16.8989 25.5111 16.2767 25.0667C15.2989 24.5333 14.1878 24.2667 12.9433 24.2667C11.9656 24.2667 11.0322 24.5333 10.1433 25.0667C9.25445 25.6 8.54334 26.3111 8.01001 27.2H0.81001C0.543343 27.2 0.343343 27.2667 0.21001 27.4C0.0766764 27.5333 0.0100098 27.6889 0.0100098 27.8667V37.7333C0.0100098 38 0.0766764 38.2 0.21001 38.3333C0.343343 38.4667 0.543343 38.5333 0.81001 38.5333H5.47668C5.65445 38.5333 5.83223 38.4667 6.01001 38.3333C6.18779 38.2 6.27668 38 6.27668 37.7333V37.0667H8.41001C8.58779 37.0667 8.76557 37 8.94334 36.8667C9.12112 36.7333 9.21001 36.5333 9.21001 36.2667V36.1333C9.74334 36.1333 10.1878 36.2 10.5433 36.3333C10.8989 36.4667 11.3878 36.7111 12.01 37.0667C13.5211 37.9556 15.0767 38.7556 16.6767 39.4667H16.81C17.61 39.8222 18.4545 40 19.3433 40C20.2322 40 21.0767 39.8222 21.8767 39.4667L34.01 35.0667C34.7211 34.7111 35.2989 34.2222 35.7433 33.6C36.2767 32.8 36.3656 31.8667 36.01 30.8ZM4.67668 36.9333H1.61001V28.6667H4.67668V36.9333ZM7.61001 35.4667H6.27668V28.6667H7.61001V35.4667ZM33.3433 33.7333L21.3433 38H21.21C19.9656 38.5333 18.6767 38.5778 17.3433 38.1333C15.7433 37.4222 14.2322 36.6222 12.81 35.7333C12.0989 35.2889 11.5211 35 11.0767 34.8667C10.6322 34.7333 10.01 34.6222 9.21001 34.5333V28.2667C9.56557 27.5556 10.0989 26.9556 10.81 26.4667C11.5211 25.9778 12.2322 25.7333 12.9433 25.7333C14.01 25.7333 14.9433 26.0444 15.7433 26.6667C16.1878 26.9333 16.4767 27.2 16.61 27.4667C16.7433 27.7333 16.8989 27.8667 17.0767 27.8667L23.3433 30C23.8767 30.1778 24.2545 30.4667 24.4767 30.8667C24.6989 31.2667 24.7433 31.6667 24.61 32.0667C24.4767 32.4667 24.2322 32.7778 23.8767 33C23.5211 33.2222 23.1656 33.2444 22.81 33.0667L15.7433 30.9333C15.5656 30.8444 15.3656 30.8444 15.1433 30.9333C14.9211 31.0222 14.7878 31.1778 14.7433 31.4C14.6989 31.6222 14.7211 31.8222 14.81 32C14.8989 32.1778 15.0767 32.3111 15.3433 32.4L22.2767 34.6667C22.5433 34.7556 22.8545 34.8 23.21 34.8C23.7433 34.8 24.2322 34.6667 24.6767 34.4C25.3878 33.9556 25.8767 33.3333 26.1433 32.5333V32.2667L32.01 30.6667C33.2545 30.2222 34.0989 30.4889 34.5433 31.4667C34.7211 32 34.6322 32.4889 34.2767 32.9333C34.01 33.2889 33.6989 33.5556 33.3433 33.7333ZM28.01 10.2667C28.01 10.1778 28.01 10.1333 28.01 10.1333V10L27.61 9.73333L27.0767 9.6L26.6767 9.86666L26.5433 10.2667V10.6667L26.81 11.0667L27.3433 11.2L27.7433 11.0667L28.01 10.6667V10.2667ZM39.21 2.66666H34.5433C34.3656 2.66666 34.1878 2.73333 34.01 2.86666C33.8322 3 33.7433 3.2 33.7433 3.46666V4.13333H31.61C31.4322 4.13333 31.2545 4.2 31.0767 4.33333C30.8989 4.46666 30.81 4.66666 30.81 4.93333V5.06667C30.2767 5.06667 29.8322 5 29.4767 4.86666C29.1211 4.73333 28.6322 4.48889 28.01 4.13333C26.4989 3.24444 24.9433 2.44444 23.3433 1.73333H23.21C22.5878 1.46666 21.9211 1.28889 21.21 1.2C20.1433 1.11111 19.1211 1.28889 18.1433 1.73333L15.0767 2.93333L12.41 0.266666C12.2322 0.0888863 12.0322 -3.8147e-06 11.81 -3.8147e-06C11.5878 -3.8147e-06 11.3878 0.0888863 11.21 0.266666L2.54334 8.93333C2.36557 9.11111 2.27668 9.28889 2.27668 9.46667C2.27668 9.64444 2.36557 9.82222 2.54334 10L17.4767 24.9333C17.5656 25.0222 17.7211 25.0667 17.9433 25.0667C18.1656 25.0667 18.3656 25.0222 18.5433 24.9333L26.41 16.9333H27.0767C28.0545 16.9333 28.9878 16.6667 29.8767 16.1333C30.7656 15.6 31.4767 14.8889 32.01 14H39.21C39.4767 14 39.6767 13.9333 39.81 13.8C39.9433 13.6667 40.01 13.5111 40.01 13.3333V3.46666C40.01 3.2 39.9433 3 39.81 2.86666C39.6767 2.73333 39.4767 2.66666 39.21 2.66666ZM11.8767 1.86666L13.61 3.73333C13.0767 4 12.4767 4.13333 11.81 4.13333C11.1433 4.13333 10.5433 4 10.01 3.73333L11.8767 1.86666ZM6.01001 11.2L4.27668 9.46667L6.01001 7.73333C6.36557 8.26666 6.54334 8.84444 6.54334 9.46667C6.54334 10.0889 6.36557 10.6667 6.01001 11.2ZM18.01 23.2L16.1433 21.4667C16.7656 21.1111 17.3878 20.9333 18.01 20.9333C18.6322 20.9333 19.21 21.1111 19.7433 21.4667L18.01 23.2ZM20.9433 20.4C20.0545 19.6889 19.0767 19.3333 18.01 19.3333C16.9433 19.3333 15.9656 19.6889 15.0767 20.4L7.07668 12.4C7.6989 11.5111 8.01001 10.5333 8.01001 9.46667C8.01001 8.4 7.6989 7.42222 7.07668 6.53333L8.94334 4.8C9.74334 5.42222 10.6989 5.73333 11.81 5.73333C12.9211 5.73333 13.8767 5.42222 14.6767 4.8L16.41 6.53333C16.0545 6.53333 15.6989 6.62222 15.3433 6.8C14.81 7.15556 14.41 7.6 14.1433 8.13333C13.1656 8.31111 12.3656 8.75555 11.7433 9.46667C10.8545 10.2667 10.41 11.2889 10.41 12.5333C10.41 13.7778 10.8545 14.8444 11.7433 15.7333C12.6322 16.6222 13.6989 17.0667 14.9433 17.0667C16.1878 17.0667 17.21 16.6222 18.01 15.7333C18.6322 15.1111 19.0322 14.4444 19.21 13.7333L21.8767 14.5333C21.5211 16.0444 21.7878 17.3778 22.6767 18.5333L20.9433 20.4ZM16.1433 12.6667L17.7433 13.2C17.5656 13.7333 17.2989 14.2222 16.9433 14.6667C16.41 15.2 15.7433 15.4667 14.9433 15.4667C14.1433 15.4667 13.4545 15.1778 12.8767 14.6C12.2989 14.0222 12.01 13.3333 12.01 12.5333C12.01 11.7333 12.2767 11.0667 12.81 10.5333C13.0767 10.2667 13.3878 10.0444 13.7433 9.86666C13.8322 10.4889 14.0989 11.0444 14.5433 11.5333C14.9878 12.0222 15.5211 12.4 16.1433 12.6667ZM23.7433 17.4667C23.4767 16.9333 23.3433 16.4 23.3433 15.8667C23.6989 16.1333 24.1433 16.3556 24.6767 16.5333L23.7433 17.4667ZM30.81 12.9333C30.4545 13.6444 29.9211 14.2444 29.21 14.7333C28.4989 15.2222 27.7878 15.4667 27.0767 15.4667L26.2767 15.3333C25.0322 15.1556 24.0545 14.6222 23.3433 13.7333V13.6C23.2545 13.4222 23.1211 13.3333 22.9433 13.3333L16.6767 11.2C16.1433 11.0222 15.7656 10.7333 15.5433 10.3333C15.3211 9.93333 15.2545 9.51111 15.3433 9.06667C15.5211 8.71111 15.7878 8.42222 16.1433 8.2C16.4989 7.97778 16.8545 7.95555 17.21 8.13333L24.2767 10.2667C24.4545 10.3556 24.6545 10.3556 24.8767 10.2667C25.0989 10.1778 25.2322 10.0222 25.2767 9.8C25.3211 9.57778 25.2989 9.37778 25.21 9.2C25.1211 9.02222 24.9433 8.88889 24.6767 8.8L19.0767 6.93333L16.2767 4.13333L18.81 3.2C20.0545 2.57777 21.3433 2.53333 22.6767 3.06667C24.2767 3.77777 25.7878 4.57777 27.21 5.46666C27.9211 5.91111 28.4989 6.2 28.9433 6.33333C29.3878 6.46666 30.01 6.57778 30.81 6.66666V12.9333ZM33.7433 12.5333H32.41V5.6H33.7433V12.5333ZM38.41 12.5333H35.3433V4.26667H38.41V12.5333Z" fill="#13172B"/>
</svg>
