<svg width="30" height="24" viewBox="0 0 30 24" fill="none" xmlns="http://www.w3.org/2000/svg">
<path d="M24.3281 6.00002H30V18H27C26.5938 18 26.2422 17.8516 25.9453 17.5547C25.6484 17.2578 25.5 16.9063 25.5 16.5H22.7812C22.6875 16.9063 22.5156 17.2656 22.2656 17.5781L21.0469 19.0781C20.6719 19.5469 20.2109 19.8516 19.6641 19.9922C19.1172 20.1328 18.5781 20.0938 18.0469 19.875C17.4531 20.625 16.6875 21 15.75 21C15.0625 21 14.4219 20.75 13.8281 20.25C13.1094 20.7813 12.2891 21.0313 11.3672 21C10.4453 20.9688 9.625 20.6563 8.90625 20.0625L4.92188 16.5H4.5C4.5 16.7813 4.42969 17.0313 4.28906 17.25C4.14844 17.4688 3.96875 17.6485 3.75 17.7891C3.53125 17.9297 3.28125 18 3 18H0V6.00002H5.53125L7.78125 3.75002C8.28125 3.25002 8.89062 3.00002 9.60938 3.00002H20.25C20.9688 3.00002 21.5938 3.25002 22.125 3.75002L24.3281 6.00002ZM1.71094 16.2656C1.71094 16.2656 1.74609 16.3047 1.81641 16.3828C1.88672 16.461 2.03125 16.5 2.25 16.5C2.46875 16.5 2.64844 16.4219 2.78906 16.2656C2.92969 16.1094 3 15.9297 3 15.7266C3 15.5235 2.92969 15.3516 2.78906 15.211C2.64844 15.0703 2.46875 15 2.25 15C2.03125 15 1.85156 15.0703 1.71094 15.211C1.57031 15.3516 1.5 15.5235 1.5 15.7266C1.5 15.9297 1.57031 16.1094 1.71094 16.2656ZM20.5312 16.1719C20.6875 15.9531 20.6719 15.7656 20.4844 15.6094L15.4219 11.5313L15 11.8594C14.4375 12.3906 13.8047 12.6797 13.1016 12.7266C12.3984 12.7735 11.8203 12.6797 11.3672 12.4453C10.9141 12.211 10.5469 11.9531 10.2656 11.6719C9.64062 10.9844 9.34375 10.1797 9.375 9.25783C9.40625 8.33596 9.76562 7.5469 10.4531 6.89065L12.2812 5.25002H9.60938C9.57812 5.25002 9.53906 5.26565 9.49219 5.2969C9.44531 5.32815 9.40625 5.34377 9.375 5.34377L6.46875 8.25002H4.5V14.25H5.8125L10.3594 18.375C10.7344 18.6875 11.1797 18.8125 11.6953 18.75C12.2109 18.6875 12.625 18.4531 12.9375 18.0469L13.6875 17.1563L15.4219 18.6563C15.7031 18.875 15.9844 18.8281 16.2656 18.5156L17.6719 16.8281L18.7969 17.7188C18.9844 17.875 19.1562 17.8594 19.3125 17.6719L20.5312 16.1719ZM25.5 14.25V8.25002H23.3906L20.5312 5.34377C20.4375 5.28127 20.3438 5.25002 20.25 5.25002H16.3125C15.8438 5.25002 15.4219 5.4219 15.0469 5.76565L12 8.57815C11.75 8.76565 11.625 9.01565 11.625 9.32815C11.625 9.64065 11.7344 9.9219 11.9531 10.1719C12.1406 10.3906 12.3984 10.4922 12.7266 10.4766C13.0547 10.461 13.3281 10.3594 13.5469 10.1719L16.125 7.78127C16.5 7.43752 16.8594 7.45315 17.2031 7.82815L17.7188 8.39065C18.0625 8.76565 18.0469 9.1094 17.6719 9.4219L17.0625 9.9844L21.8906 13.875C22.0156 14 22.1406 14.125 22.2656 14.25H25.5ZM27.2109 16.2656C27.2109 16.2656 27.2461 16.3047 27.3164 16.3828C27.3867 16.461 27.5312 16.5 27.75 16.5C27.9688 16.5 28.1484 16.4219 28.2891 16.2656C28.4297 16.1094 28.5 15.9297 28.5 15.7266C28.5 15.5235 28.4297 15.3516 28.2891 15.211C28.1484 15.0703 27.9688 15 27.75 15C27.5312 15 27.3516 15.0703 27.2109 15.211C27.0703 15.3516 27 15.5235 27 15.7266C27 15.9297 27.0703 16.1094 27.2109 16.2656Z" fill="#13172B"/>
</svg>
