<svg width="25" height="21" viewBox="0 0 25 21" fill="none" xmlns="http://www.w3.org/2000/svg">
<path d="M19.4531 9.32812C19.8177 9.69271 20 10.1354 20 10.6562C20 11.1771 19.8177 11.6198 19.4531 11.9844L11.4844 19.9531C11.1198 20.3177 10.6771 20.5 10.1562 20.5C9.63542 20.5 9.19271 20.3177 8.82812 19.9531L0.546875 11.6719C0.182292 11.3073 0 10.8646 0 10.3438V2.375C0 1.85417 0.182292 1.41146 0.546875 1.04688C0.911458 0.682291 1.35417 0.5 1.875 0.5H9.84375C10.3646 0.5 10.8073 0.682291 11.1719 1.04688L19.4531 9.32812ZM3.04688 6.20312C3.04688 6.20312 3.13802 6.29427 3.32031 6.47656C3.5026 6.65885 3.85417 6.75 4.375 6.75C4.89583 6.75 5.33854 6.56771 5.70312 6.20312C6.06771 5.83854 6.25 5.39583 6.25 4.875C6.25 4.35417 6.06771 3.91146 5.70312 3.54688C5.33854 3.18229 4.89583 3 4.375 3C3.85417 3 3.41146 3.18229 3.04688 3.54688C2.68229 3.91146 2.5 4.35417 2.5 4.875C2.5 5.39583 2.68229 5.83854 3.04688 6.20312ZM24.4531 11.9844L16.4844 19.9531C16.1198 20.3177 15.6771 20.5 15.1562 20.5C14.6354 20.5 14.1927 20.3177 13.8281 19.9531L20.625 13.1562C21.3021 12.4531 21.6406 11.6198 21.6406 10.6562C21.6406 9.69271 21.3021 8.85938 20.625 8.15625L12.9297 0.5H14.8438C15.3646 0.5 15.8073 0.682291 16.1719 1.04688L24.4531 9.32812C24.8177 9.69271 25 10.1354 25 10.6562C25 11.1771 24.8177 11.6198 24.4531 11.9844Z" fill="#13172B"/>
</svg>
