<svg width="18" height="18" viewBox="0 0 18 18" fill="none" xmlns="http://www.w3.org/2000/svg">
<path d="M17.6484 6.71484C17.7188 6.64453 17.7949 6.63281 17.877 6.67969C17.959 6.72656 18 6.79688 18 6.89062V14.0625C18 14.5312 17.8359 14.9297 17.5078 15.2578C17.1797 15.5859 16.7812 15.75 16.3125 15.75H1.6875C1.21875 15.75 0.820312 15.5859 0.492188 15.2578C0.164063 14.9297 0 14.5312 0 14.0625V6.89062C0 6.79688 0.0410156 6.73242 0.123047 6.69727C0.205078 6.66211 0.28125 6.66797 0.351562 6.71484C1.125 7.30078 2.92969 8.625 5.76562 10.6875C5.8125 10.7344 5.9707 10.8633 6.24023 11.0742C6.50977 11.2852 6.72656 11.4434 6.89062 11.5488C7.05469 11.6543 7.26562 11.7832 7.52344 11.9355C7.78125 12.0879 8.0332 12.1992 8.2793 12.2695C8.52539 12.3398 8.76562 12.375 9 12.375C9.21094 12.375 9.42188 12.3457 9.63281 12.2871C9.84375 12.2285 10.043 12.1582 10.2305 12.0762C10.418 11.9941 10.6172 11.8828 10.8281 11.7422C11.0391 11.6016 11.2148 11.4785 11.3555 11.373C11.4961 11.2676 11.6602 11.1445 11.8477 11.0039C12.0352 10.8633 12.1641 10.7578 12.2344 10.6875C15 8.69531 16.8047 7.37109 17.6484 6.71484ZM9 11.25C8.8125 11.25 8.58398 11.1855 8.31445 11.0566C8.04492 10.9277 7.82812 10.8105 7.66406 10.7051C7.5 10.5996 7.25977 10.4238 6.94336 10.1777C6.62695 9.93164 6.45703 9.80859 6.43359 9.80859C3.57422 7.72266 1.53516 6.21094 0.316406 5.27344C0.105469 5.10938 0 4.88672 0 4.60547V3.9375C0 3.46875 0.164063 3.07031 0.492188 2.74219C0.820312 2.41406 1.21875 2.25 1.6875 2.25H16.3125C16.7812 2.25 17.1797 2.41406 17.5078 2.74219C17.8359 3.07031 18 3.46875 18 3.9375V4.60547C18 4.88672 17.8945 5.10938 17.6836 5.27344C16.5352 6.16406 14.4961 7.67578 11.5664 9.80859C11.543 9.80859 11.373 9.93164 11.0566 10.1777C10.7402 10.4238 10.5 10.5996 10.3359 10.7051C10.1719 10.8105 9.95508 10.9277 9.68555 11.0566C9.41602 11.1855 9.1875 11.25 9 11.25Z" fill="#13172B"/>
</svg>
