<svg width="41" height="40" viewBox="0 0 41 40" fill="none" xmlns="http://www.w3.org/2000/svg">
<path d="M28.5362 30.9333C28.3585 30.9333 28.203 31 28.0697 31.1333C27.9364 31.2667 27.8697 31.4444 27.8697 31.6667C27.8697 31.8889 27.9364 32.0889 28.0697 32.2667C28.203 32.4444 28.3807 32.5333 28.6029 32.5333C28.825 32.5333 29.0028 32.4444 29.1361 32.2667C29.2694 32.0889 29.336 31.8889 29.336 31.6667C29.336 31.4444 29.2694 31.2667 29.1361 31.1333C29.0028 31 28.8028 30.9333 28.5362 30.9333ZM30.5357 28.4L26.8033 27.2L25.4703 24.5333C26.7145 23.2 27.4698 21.6889 27.7364 20L28.003 18.9333H29.336C30.047 18.9333 30.6246 18.7111 31.0689 18.2667C31.5133 17.8222 31.7354 17.2889 31.7354 16.6667V11.7333C31.7354 9.6 31.2022 7.64444 30.1358 5.86666C29.0694 4.08889 27.6476 2.66666 25.8702 1.6C24.0929 0.533333 22.1378 -3.8147e-06 20.005 -3.8147e-06C17.8722 -3.8147e-06 15.9172 0.533333 14.1398 1.6C12.3625 2.66666 10.9406 4.08889 9.87422 5.86666C8.80782 7.64444 8.27462 9.6 8.27462 11.7333V16.6667C8.27462 17.1111 8.43014 17.5556 8.74117 18C9.05221 18.4444 9.42989 18.7111 9.87422 18.8V19.7333C9.87422 20.4444 10.0964 21.0222 10.5407 21.4667C10.9851 21.9111 11.5183 22.1333 12.1403 22.1333H12.9401C13.2067 22.8444 13.6066 23.5111 14.1398 24.1333L14.5397 24.5333L13.2067 27.2L9.47432 28.4C7.34152 29.1111 5.56419 30.4889 4.14232 32.5333C2.72045 34.5778 2.00952 36.8 2.00952 39.2C2.00952 39.4667 2.09839 39.6667 2.27612 39.8C2.45385 39.9333 2.63159 40 2.80932 40H37.2007C37.3785 40 37.5562 39.9333 37.7339 39.8C37.9117 39.6667 38.0005 39.4667 38.0005 39.2C38.0005 36.8 37.2896 34.5778 35.8677 32.5333C34.4459 30.4889 32.6685 29.1111 30.5357 28.4ZM30.1358 16.6667C30.1358 16.8444 30.0692 17.0222 29.9359 17.2C29.8026 17.3778 29.6026 17.4667 29.336 17.4667H28.1363C28.4029 15.8667 28.5362 14.2667 28.5362 12.6667V12.5333H30.1358V16.6667ZM10.674 17.4667C10.4074 17.4667 10.2075 17.3778 10.0742 17.2C9.94087 17.0222 9.87422 16.8444 9.87422 16.6667V12.5333H11.4738V12.8C11.4738 14.3111 11.6071 15.8667 11.8737 17.4667H10.674ZM12.1403 20.5333C11.9626 20.5333 11.8071 20.4667 11.6738 20.3333C11.5405 20.2 11.4738 20 11.4738 19.7333V18.9333H12.007L12.2736 20.5333H12.1403ZM11.4738 10.9333H9.87422C10.052 9.24444 10.5852 7.66666 11.4738 6.2C12.3625 4.73333 13.5622 3.6 15.0729 2.8C16.5837 2 18.2277 1.6 20.005 1.6C21.7824 1.6 23.4042 2 24.8705 2.8C26.3368 3.6 27.5365 4.73333 28.4696 6.2C29.4027 7.66666 29.9581 9.24444 30.1358 10.9333H28.5362C28.5362 9.51111 28.1808 8.2 27.4698 7C26.7589 5.8 25.8036 4.84444 24.6039 4.13333C23.4042 3.42222 22.0934 3.06667 20.6715 3.06667H19.3385C17.9167 3.06667 16.6059 3.42222 15.4062 4.13333C14.2065 4.84444 13.2512 5.8 12.5402 7C11.8293 8.2 11.4738 9.51111 11.4738 10.9333ZM19.3385 4.66666H20.6715C22.4489 4.66666 23.9596 5.28889 25.2037 6.53333C26.4479 7.77777 27.0699 9.28889 27.0699 11.0667V11.7333L26.0035 11.6C23.2487 11.1556 20.8937 9.95555 18.9386 8C18.8498 7.91111 18.672 7.86666 18.4054 7.86666C17.339 7.86666 16.3393 8.08889 15.4062 8.53333C14.4731 8.97778 13.6955 9.6 13.0734 10.4C13.1623 8.8 13.8066 7.44444 15.0063 6.33333C16.206 5.22222 17.6501 4.66666 19.3385 4.66666ZM14.0065 20.5333C13.7399 19.9111 13.5178 18.8 13.34 17.2C13.1623 15.6 13.0734 14.1778 13.0734 12.9333L14.0065 11.6C14.5397 10.8889 15.1618 10.3556 15.8727 10C16.5837 9.64444 17.339 9.42222 18.1388 9.33333C20.2716 11.4667 22.8488 12.7111 25.8702 13.0667L26.9366 13.3333C26.8478 14.9333 26.7145 16.4889 26.5367 18L26.2701 19.7333C26.0035 20.9778 25.4481 22.1111 24.6039 23.1333C23.7596 24.1556 22.7821 24.8 21.6713 25.0667C20.5604 25.3333 19.4718 25.3333 18.4054 25.0667C16.8058 24.6222 15.5617 23.6444 14.673 22.1333H16.2726C16.4504 22.5778 16.7392 22.9556 17.1391 23.2667C17.539 23.5778 17.9611 23.7333 18.4054 23.7333H20.005C20.6271 23.7333 21.1825 23.4889 21.6713 23C22.16 22.5111 22.4044 21.9556 22.4044 21.3333C22.4044 20.7111 22.16 20.1556 21.6713 19.6667C21.1825 19.1778 20.6271 18.9333 20.005 18.9333H18.4054C17.9611 18.9333 17.539 19.0889 17.1391 19.4C16.7392 19.7111 16.4504 20.0889 16.2726 20.5333H14.0065ZM18.4054 26.6667C18.9386 26.7556 19.4496 26.8 19.9384 26.8C20.4271 26.8 20.8937 26.7556 21.338 26.6667L19.8717 28.1333L18.4054 26.6667ZM18.8053 29.3333L16.4059 31.8667C15.695 30.6222 15.0729 29.2889 14.5397 27.8667L15.4728 26L18.8053 29.3333ZM24.4039 25.7333L25.4703 27.8667C24.9371 29.2889 24.3151 30.6222 23.6041 31.8667L21.0714 29.3333L24.4039 25.7333ZM17.6056 21.3333C17.6056 21.1556 17.6945 20.9778 17.8722 20.8C18.05 20.6222 18.2277 20.5333 18.4054 20.5333H20.005C20.1828 20.5333 20.3605 20.6222 20.5382 20.8C20.716 20.9778 20.8048 21.1556 20.8048 21.3333C20.8048 21.5111 20.716 21.6889 20.5382 21.8667C20.3605 22.0444 20.1828 22.1333 20.005 22.1333H18.4054C18.2277 22.1333 18.05 22.0444 17.8722 21.8667C17.6945 21.6889 17.6056 21.5111 17.6056 21.3333ZM3.60912 38.4C3.78685 36.4444 4.45335 34.6889 5.60862 33.1333C6.76389 31.5778 8.23019 30.4889 10.0075 29.8667L13.2067 28.8C13.8288 30.4889 14.5842 32.0889 15.4728 33.6C16.0949 34.7556 16.8058 35.8667 17.6056 36.9333L18.5387 38.4H3.60912ZM20.005 37.7333L18.9386 36C18.3166 35.1111 17.7389 34.2222 17.2057 33.3333L19.8717 30.4L22.8043 33.3333C22.2711 34.2222 21.6935 35.1111 21.0714 36L20.005 37.7333ZM21.4713 38.4L22.4044 36.9333C23.2042 35.8667 23.9152 34.7556 24.5372 33.6C25.4259 32.0889 26.1813 30.4889 26.8033 28.8L30.0025 29.8667C31.7799 30.4889 33.2462 31.5778 34.4014 33.1333C35.5567 34.6889 36.2232 36.4444 36.4009 38.4H21.4713ZM34.0015 35.3333C33.4683 34.2667 32.7574 33.3333 31.8687 32.5333C31.691 32.4444 31.491 32.4222 31.2689 32.4667C31.0467 32.5111 30.869 32.6 30.7357 32.7333C30.6024 32.8667 30.5579 33.0444 30.6024 33.2667C30.6468 33.4889 30.7135 33.6889 30.8023 33.8667C31.6021 34.4 32.2242 35.1111 32.6685 36C32.7574 36.1778 32.8907 36.3111 33.0684 36.4C33.2462 36.4889 33.4461 36.4667 33.6683 36.3333C33.8904 36.2 34.0237 36.0444 34.0682 35.8667C34.1126 35.6889 34.0904 35.5111 34.0015 35.3333Z" fill="#13172B"/>
</svg>
