<svg width="17" height="24" viewBox="0 0 17 24" fill="none" xmlns="http://www.w3.org/2000/svg">
<path d="M11.4375 15.1875C11.4375 15.1875 11.2188 15.4062 10.7812 15.8438C10.3438 16.2812 9.5 16.5 8.25 16.5C7 16.5 5.9375 16.0625 5.0625 15.1875C4.1875 14.3125 3.75 13.25 3.75 12V4.5C3.75 3.25 4.1875 2.1875 5.0625 1.3125C5.9375 0.4375 7 0 8.25 0C9.5 0 10.5625 0.4375 11.4375 1.3125C12.3125 2.1875 12.75 3.25 12.75 4.5V12C12.75 13.25 12.3125 14.3125 11.4375 15.1875ZM15.75 9C15.9688 9 16.1484 9.07031 16.2891 9.21094C16.4297 9.35156 16.5 9.53125 16.5 9.75V12C16.5 14.0625 15.8203 15.8672 14.4609 17.4141C13.1016 18.9609 11.4062 19.875 9.375 20.1562V21.75H12C12.2188 21.75 12.3984 21.8203 12.5391 21.9609C12.6797 22.1016 12.75 22.2812 12.75 22.5V23.25C12.75 23.4688 12.6797 23.6484 12.5391 23.7891C12.3984 23.9297 12.2188 24 12 24H4.5C4.28125 24 4.10156 23.9297 3.96094 23.7891C3.82031 23.6484 3.75 23.4688 3.75 23.25V22.5C3.75 22.2812 3.82031 22.1016 3.96094 21.9609C4.10156 21.8203 4.28125 21.75 4.5 21.75H7.125V20.1562C5.09375 19.875 3.39844 18.9141 2.03906 17.2734C0.679688 15.6328 0 13.75 0 11.625V9.75C0 9.53125 0.0703125 9.35156 0.210938 9.21094C0.351562 9.07031 0.53125 9 0.75 9H1.5C1.71875 9 1.89844 9.07031 2.03906 9.21094C2.17969 9.35156 2.25 9.53125 2.25 9.75V11.7188C2.25 13.3125 2.76562 14.7188 3.79688 15.9375C4.82812 17.1562 6.10938 17.8281 7.64062 17.9531C9.42188 18.1406 10.9688 17.6328 12.2812 16.4297C13.5938 15.2266 14.25 13.75 14.25 12V9.75C14.25 9.53125 14.3203 9.35156 14.4609 9.21094C14.6016 9.07031 14.7812 9 15 9H15.75Z" fill="#13172B"/>
</svg>
