<svg width="21" height="24" viewBox="0 0 21 24" fill="none" xmlns="http://www.w3.org/2000/svg">
<path d="M16.5 7.5H21V20.25C21 21.2812 20.6328 22.1641 19.8984 22.8984C19.1641 23.6328 18.2812 24 17.25 24H3.75C2.71875 24 1.83594 23.6328 1.10156 22.8984C0.367188 22.1641 0 21.2812 0 20.25V7.5H4.5V6C4.5 4.34375 5.08594 2.92969 6.25781 1.75781C7.42969 0.585938 8.84375 0 10.5 0C12.1562 0 13.5703 0.585938 14.7422 1.75781C15.9141 2.92969 16.5 4.34375 16.5 6V7.5ZM7.5 6V7.5H13.5V6C13.5 5.1875 13.2031 4.48438 12.6094 3.89062C12.0156 3.29688 11.3125 3 10.5 3C9.6875 3 8.98438 3.29688 8.39062 3.89062C7.79688 4.48438 7.5 5.1875 7.5 6ZM14.2031 11.2969C14.2031 11.2969 14.2578 11.3516 14.3672 11.4609C14.4766 11.5703 14.6875 11.625 15 11.625C15.3125 11.625 15.5781 11.5156 15.7969 11.2969C16.0156 11.0781 16.125 10.8125 16.125 10.5C16.125 10.1875 16.0156 9.92188 15.7969 9.70312C15.5781 9.48438 15.3125 9.375 15 9.375C14.6875 9.375 14.4219 9.48438 14.2031 9.70312C13.9844 9.92188 13.875 10.1875 13.875 10.5C13.875 10.8125 13.9844 11.0781 14.2031 11.2969ZM5.20312 11.2969C5.20312 11.2969 5.25781 11.3516 5.36719 11.4609C5.47656 11.5703 5.6875 11.625 6 11.625C6.3125 11.625 6.57812 11.5156 6.79688 11.2969C7.01562 11.0781 7.125 10.8125 7.125 10.5C7.125 10.1875 7.01562 9.92188 6.79688 9.70312C6.57812 9.48438 6.3125 9.375 6 9.375C5.6875 9.375 5.42188 9.48438 5.20312 9.70312C4.98438 9.92188 4.875 10.1875 4.875 10.5C4.875 10.8125 4.98438 11.0781 5.20312 11.2969Z" fill="#13172B"/>
</svg>
