<svg width="24" height="24" viewBox="0 0 24 24" fill="none" xmlns="http://www.w3.org/2000/svg">
<path d="M9 4.5L6.79688 1.17188C6.70312 1.04688 6.65625 0.90625 6.65625 0.75C6.65625 0.53125 6.72656 0.351562 6.86719 0.210938C7.00781 0.0703125 7.1875 0 7.40625 0H16.5938C16.8125 0 16.9922 0.0703125 17.1328 0.210938C17.2734 0.351562 17.3438 0.53125 17.3438 0.75C17.3438 0.90625 17.2969 1.04688 17.2031 1.17188L15 4.5H9ZM15 6C16.25 6.71875 17.375 7.49219 18.375 8.32031C19.375 9.14844 20.1797 9.9375 20.7891 10.6875C21.3984 11.4375 21.9219 12.2266 22.3594 13.0547C22.7969 13.8828 23.1172 14.5938 23.3203 15.1875C23.5234 15.7812 23.6797 16.4141 23.7891 17.0859C23.8984 17.7578 23.9609 18.2266 23.9766 18.4922C23.9922 18.7578 24 19.0625 24 19.4062C24 19.4375 24 19.4688 24 19.5C24 20.75 23.5 21.8125 22.5 22.6875C21.5 23.5625 20.2812 24 18.8438 24H5.15625C3.71875 24 2.5 23.5625 1.5 22.6875C0.5 21.8125 0 20.75 0 19.5C0 13.9062 3 9.40625 9 6H15ZM12.7969 19.0312C13.4219 19.0312 13.9453 18.8047 14.3672 18.3516C14.7891 17.8984 15 17.3594 15 16.7344C15 16.2344 14.8516 15.7812 14.5547 15.375C14.2578 14.9688 13.875 14.7031 13.4062 14.5781L11.1094 13.875C10.7969 13.7812 10.6406 13.5625 10.6406 13.2188C10.6406 13.125 10.6719 13.0234 10.7344 12.9141C10.7969 12.8047 10.8672 12.7188 10.9453 12.6562C11.0234 12.5938 11.125 12.5625 11.25 12.5625H12.6562C12.9062 12.5625 13.125 12.625 13.3125 12.75C13.4062 12.8125 13.4844 12.8438 13.5469 12.8438C13.6719 12.8438 13.7656 12.8125 13.8281 12.75L14.4375 12.1406C14.5312 12.0781 14.5781 11.9844 14.5781 11.8594C14.5781 11.7344 14.5156 11.625 14.3906 11.5312C13.9219 11.1875 13.3906 11 12.7969 10.9688V10.1719C12.7969 9.89062 12.6719 9.75 12.4219 9.75H11.5781C11.3281 9.75 11.1875 9.89062 11.1562 10.1719V10.9688C10.5625 11 10.0547 11.2344 9.63281 11.6719C9.21094 12.1094 9 12.6406 9 13.2656C9 13.7656 9.14844 14.2188 9.44531 14.625C9.74219 15.0312 10.125 15.2969 10.5938 15.4219L12.8906 16.125C13.2031 16.2188 13.3594 16.4375 13.3594 16.7812C13.3594 16.875 13.3359 16.9766 13.2891 17.0859C13.2422 17.1953 13.1719 17.2812 13.0781 17.3438C12.9844 17.4062 12.875 17.4375 12.75 17.4375H11.3438C11.0938 17.4375 10.875 17.375 10.6875 17.25C10.5938 17.1875 10.5156 17.1562 10.4531 17.1562C10.3281 17.1562 10.2344 17.2031 10.1719 17.2969L9.5625 17.8594C9.46875 17.9219 9.42188 18.0156 9.42188 18.1406C9.42188 18.2656 9.46875 18.375 9.5625 18.4688C10.0625 18.8125 10.6094 19 11.2031 19.0312V19.8281C11.2031 20.1094 11.3281 20.25 11.5781 20.25H12.4219C12.6719 20.25 12.7969 20.1094 12.7969 19.8281V19.0312Z" fill="#13172B"/>
</svg>
