<svg width="20" height="20" viewBox="0 0 20 20" fill="none" xmlns="http://www.w3.org/2000/svg">
<path d="M17.2667 10.6H2.7334V9.39998H17.2667V10.6ZM16.6667 9.39998C15.7334 9.39998 14.8556 9.64442 14.0334 10.1333C13.2112 10.6222 12.5556 11.2778 12.0667 12.1C11.5778 12.9222 11.3334 13.8 11.3334 14.7333V15.3333H12.6001V14.7333C12.6001 14.0222 12.7778 13.3555 13.1334 12.7333C13.489 12.1111 13.989 11.6 14.6334 11.2C15.2778 10.8 15.9556 10.6 16.6667 10.6H17.2667V9.39998H16.6667ZM16.6667 10.6C15.7334 10.6 14.8556 10.3555 14.0334 9.86665C13.2112 9.37776 12.5556 8.7222 12.0667 7.89998C11.5778 7.07776 11.3334 6.19998 11.3334 5.26665V4.66665H12.6001V5.26665C12.6001 5.97776 12.7778 6.64442 13.1334 7.26665C13.489 7.88887 13.989 8.39998 14.6334 8.79998C15.2778 9.19998 15.9556 9.39998 16.6667 9.39998H17.2667V10.6H16.6667Z" fill="#13172B"/>
</svg>
