<svg width="51" height="50" viewBox="0 0 51 50" fill="none" xmlns="http://www.w3.org/2000/svg">
<path d="M11.1767 7.33317C9.06557 7.33317 7.17668 7.83317 5.51001 8.83317C3.84334 9.83317 2.51001 11.1943 1.51001 12.9165C0.51001 14.6387 0.0100098 16.4721 0.0100098 18.4165C0.0100098 20.3609 0.482232 22.1665 1.42668 23.8332C2.37112 25.4998 3.62112 26.8332 5.17668 27.8332C6.73223 28.8332 8.51001 29.3887 10.51 29.4998C10.51 30.3887 10.3989 31.3887 10.1767 32.4998C9.73223 34.1665 8.8989 35.8887 7.67668 37.6665C7.45445 37.9998 7.45445 38.3332 7.67668 38.6665L11.51 42.4998C11.6211 42.6109 11.7878 42.6665 12.01 42.6665C12.2322 42.6665 12.3989 42.6109 12.51 42.4998C15.3989 39.9443 17.7322 36.7221 19.51 32.8332C21.6211 28.1665 22.51 23.3332 22.1767 18.3332C21.9545 15.2221 20.7878 12.6109 18.6767 10.4998C16.5656 8.38873 14.0656 7.33317 11.1767 7.33317ZM12.01 40.8332C11.8989 40.7221 11.6767 40.4443 11.3433 39.9998L9.34334 37.9998C10.3433 36.4443 11.0656 34.8887 11.51 33.3332C11.8433 32.1109 12.01 30.9998 12.01 29.9998C12.01 29.2221 11.9267 28.6943 11.76 28.4165C11.5933 28.1387 11.3989 27.9998 11.1767 27.9998C8.51001 27.9998 6.23223 27.0554 4.34334 25.1665C2.45445 23.2776 1.51001 21.0276 1.51001 18.4165C1.51001 15.8054 2.45445 13.5554 4.34334 11.6665C6.23223 9.77761 8.48223 8.83317 11.0933 8.83317C13.7045 8.83317 15.8989 9.74984 17.6767 11.5832C19.4545 13.4165 20.4545 15.7221 20.6767 18.4998C21.01 23.7221 19.9545 28.7221 17.51 33.4998C15.9545 36.2776 14.1211 38.7221 12.01 40.8332ZM50.01 18.3332C49.6767 15.2221 48.4822 12.6109 46.4267 10.4998C44.3711 8.38873 41.8433 7.33317 38.8433 7.33317C36.8433 7.33317 34.9822 7.83317 33.26 8.83317C31.5378 9.83317 30.1767 11.1943 29.1767 12.9165C28.1767 14.6387 27.6767 16.4721 27.6767 18.4165C27.6767 20.3609 28.1489 22.1665 29.0933 23.8332C30.0378 25.4998 31.3156 26.8332 32.9267 27.8332C34.5378 28.8332 36.2878 29.3887 38.1767 29.4998C38.2878 30.3887 38.1767 31.3887 37.8433 32.4998C37.3989 34.1665 36.5656 35.8887 35.3433 37.6665C35.1211 37.9998 35.1767 38.3332 35.51 38.6665L39.1767 42.4998C39.3989 42.6109 39.5933 42.6665 39.76 42.6665C39.9267 42.6665 40.1211 42.6109 40.3433 42.4998C43.1211 39.9443 45.4545 36.7221 47.3433 32.8332C49.4545 28.1665 50.3433 23.3332 50.01 18.3332ZM39.8433 40.8332C39.6211 40.6109 39.3433 40.3332 39.01 39.9998L37.01 37.9998C38.01 36.4443 38.7878 34.8887 39.3433 33.3332C39.6767 32.1109 39.8433 30.9998 39.8433 29.9998C39.8433 29.2221 39.76 28.6943 39.5933 28.4165C39.4267 28.1387 39.1767 27.9998 38.8433 27.9998C36.1767 27.9998 33.9267 27.0554 32.0933 25.1665C30.26 23.2776 29.3433 21.0276 29.3433 18.4165C29.3433 15.8054 30.26 13.5554 32.0933 11.6665C33.9267 9.77761 36.1489 8.83317 38.76 8.83317C41.3711 8.83317 43.5656 9.74984 45.3433 11.5832C47.1211 13.4165 48.1211 15.7221 48.3433 18.4998C48.7878 23.7221 47.7322 28.7221 45.1767 33.4998C43.7322 36.2776 41.9545 38.7221 39.8433 40.8332Z" fill="#F7941F"/>
</svg>
