<svg width="14" height="13" viewBox="0 0 14 13" fill="none" xmlns="http://www.w3.org/2000/svg">
<path d="M6.07026 0.921847C6.21089 0.640597 6.43745 0.499971 6.74995 0.499971C7.06245 0.499971 7.28901 0.640597 7.42964 0.921847L8.95308 4.0156L12.375 4.53122C12.6875 4.56247 12.8906 4.72653 12.9843 5.02341C13.0781 5.32029 13.0156 5.5781 12.7968 5.79685L10.3125 8.21091L10.8984 11.6328C10.9453 11.9297 10.8437 12.1679 10.5937 12.3476C10.3437 12.5273 10.0859 12.5468 9.82026 12.4062L6.74995 10.8125L3.67964 12.4062C3.41401 12.5625 3.1562 12.5468 2.9062 12.3593C2.6562 12.1718 2.55464 11.9297 2.60151 11.6328L3.18745 8.21091L0.703076 5.79685C0.484326 5.5781 0.421826 5.32029 0.515576 5.02341C0.609326 4.72653 0.812451 4.56247 1.12495 4.53122L4.54683 4.0156L6.07026 0.921847Z" fill="#CC0D39"/>
</svg>
