<svg width="1440" height="57" viewBox="0 0 1440 57" fill="none" xmlns="http://www.w3.org/2000/svg">
<path d="M1416.74 30.6795C1426.24 25.1628 1438.4 7.57481 1440 0L1.86653 0.0829011C-13.9265 4.03325 75.6217 23.8572 78.102 24.4308C95.1809 28.3804 136.622 34.2867 147.015 44.6847C149.287 46.9578 161.101 54.1653 166.612 54.1653C171.522 54.1653 178.42 46.7832 181.041 44.6847C191.239 36.5222 238.216 47.0609 253.615 41.6682C283.567 31.1796 297.45 15.9933 339.111 20.5524C352.162 21.9806 373.34 29.565 387.35 27.0164C397.271 25.2115 404.709 20.0964 415.777 17.9667C432.733 14.7042 438.589 9.4915 459.278 9.77898C471.885 9.95418 486.063 20.7373 493.95 25.4004C504.044 31.368 504.951 35.2914 519.577 31.1103C533.965 26.9972 560.067 28.7024 575.139 30.033C584.612 30.8694 614.899 39.2332 623.593 35.8506C627.927 34.1645 630.48 32.637 635.653 31.0026C652.114 25.8014 679.048 25.5015 697.459 28.9557C710.418 31.3866 740.749 34.4523 749.791 39.729C753.87 42.1116 753.585 45.4903 757.762 47.7013C763.567 50.7777 766.17 51.2311 771.757 50.6101C782.077 49.4628 783.967 46.2953 792.645 43.6074C818.205 35.6924 841.282 24.5651 870.39 19.906C887.235 17.2092 895.44 27.105 906.78 31.1103C930.12 39.3509 947.19 43.4978 974.835 36.9279C998.797 31.2348 1026.85 17.5359 1054.3 17.5359C1064.66 17.5359 1070.97 24.5504 1076.48 28.0938C1088.53 35.8438 1100.25 42.7456 1120.42 42.7456C1149.27 42.7456 1158.15 37.4889 1180.72 29.2788C1191.43 25.3787 1212.64 17.1194 1226.8 17.5359C1238.55 17.8817 1242.73 32.7021 1250.92 36.4971C1262.44 41.8375 1282.96 37.1926 1292.91 32.8341C1302.16 28.7827 1318.82 15.5238 1332.97 22.5994C1341.36 26.7954 1346.03 40.4943 1350.84 46.1931C1361.71 59.0764 1364.97 58.1697 1382.29 51.3643C1396.18 45.902 1405.22 37.3735 1416.74 30.6795Z" fill="#FFFAF3"/>
</svg>
